<svg width="1126" height="764" viewBox="0 0 1126 764" fill="none" xmlns="http://www.w3.org/2000/svg">
<path d="M18.3479 307.95C18.5427 308.339 17.9583 308.924 17.9583 309.508C16.5946 314.378 13.8672 318.47 9.97096 321.781C8.80208 322.755 8.02282 324.509 6.2695 324.898C3.54211 325.678 2.37322 327.821 1.98359 330.548C1.98359 331.522 1.78879 332.691 1.20435 333.275C0.035471 334.444 0.0354592 335.808 0.0354592 337.172C0.0354592 339.12 0.0354592 340.873 0.0354592 342.821C-0.159354 344.575 0.425095 345.743 2.37323 345.938C3.93174 346.133 5.49024 346.912 5.68505 348.276C6.07468 351.198 8.21763 352.757 9.77613 354.705C10.7502 355.874 11.3346 357.043 11.5295 358.406C11.9191 363.277 11.9191 363.277 16.5946 364.835C17.9583 365.225 19.5168 365.42 20.2961 367.173C21.6598 370.095 23.2183 372.822 24.3871 375.55C25.9457 379.251 27.3093 380.225 31.2056 380.031C33.3486 379.836 35.2967 379.641 37.4397 380.42C38.8034 380.81 39.5826 381.589 39.5826 383.342C39.3878 386.265 39.3878 389.187 39.193 392.109C39.193 394.642 40.3619 395.81 42.8944 395.226C43.6737 395.031 44.4529 394.836 45.2322 394.057C47.7648 391.135 50.4922 388.797 54.7781 389.382C56.3366 389.576 57.7003 388.602 58.6743 387.433C59.4536 386.459 60.4276 385.485 61.4017 384.511C62.3758 383.537 63.3498 383.342 64.5187 384.511C66.4669 386.459 68.6098 388.213 70.7528 390.356C73.4801 393.083 76.5972 395.031 80.883 394.836C83.6104 394.642 86.5326 394.057 89.0652 395.226C92.5719 396.785 96.2733 397.759 99.5852 399.512C102.897 401.46 106.404 402.239 110.105 401.85C111.274 401.655 112.443 402.045 113.222 402.434C115.56 403.993 118.287 404.382 120.43 406.136C121.599 407.11 122.963 407.304 124.326 407.304C126.275 407.304 128.223 407.304 130.171 407.304C131.34 407.304 132.509 407.304 133.288 406.72C136.21 404.772 139.522 404.967 142.834 404.967C147.509 404.772 150.626 406.915 152.38 411.201C152.964 412.37 153.354 413.538 153.938 414.707C154.523 416.071 155.691 417.435 157.055 417.824C161.146 418.993 163.094 422.11 164.263 425.617C165.237 428.15 166.796 429.318 169.134 429.903C172.64 430.487 176.342 429.903 179.459 428.539C183.55 426.786 186.862 423.864 189.394 419.967C191.927 415.876 195.239 413.538 200.304 413.538C208.486 413.733 216.473 413.538 224.655 413.538C226.409 413.538 227.772 413.539 229.136 412.175C230.11 411.201 231.474 411.201 232.838 411.201C235.175 411.201 237.513 411.201 239.656 411.201C243.163 411.201 246.669 411.006 250.176 410.616C251.54 410.421 252.514 409.837 253.683 409.058C256.215 407.11 257.384 404.382 259.137 401.85C260.696 399.707 262.644 397.759 262.644 394.642C262.644 393.278 264.008 391.914 265.566 391.914C267.125 391.914 268.488 391.33 269.852 390.356C270.631 389.771 271.411 389.382 272.385 389.576C275.307 389.771 278.034 388.797 280.762 388.602C282.515 388.408 283.684 387.628 284.268 386.07C285.048 384.122 286.411 383.342 288.359 383.342C290.892 383.148 292.84 381.784 293.814 379.446C294.593 377.693 295.762 377.303 297.126 378.277C300.048 380.225 302.776 379.836 305.308 378.082C308.036 376.134 310.373 376.329 312.711 378.472C313.49 379.057 314.075 379.446 315.049 379.446C318.166 379.641 321.283 379.836 323.231 376.914C323.621 376.329 324.205 376.134 324.79 375.745C326.348 374.381 328.491 373.991 329.855 375.355C333.946 378.667 337.842 377.303 341.738 375.55C343.102 374.965 344.466 374.576 345.829 374.381C349.141 373.797 352.063 374.186 354.596 376.719C356.544 378.667 358.103 380.615 359.466 382.758C360.635 384.706 362.194 385.875 364.337 386.265C370.376 387.433 370.376 387.433 372.129 393.278C372.714 395.226 372.908 395.421 374.662 394.057C375.636 393.278 376.805 392.888 377.584 393.862C379.142 395.616 381.091 395.421 383.039 395.226C383.818 395.226 384.792 395.031 385.571 395.226C387.714 395.616 388.494 397.369 387.13 399.122C386.545 399.902 385.961 400.486 385.377 401.07C384.597 401.85 384.402 402.824 384.792 403.798C385.182 404.772 386.156 404.577 387.13 404.577C388.494 404.577 389.857 404.382 390.442 405.941C391.416 407.889 393.169 409.058 394.533 410.616C395.896 410.032 396.676 408.863 397.65 408.084C398.234 407.694 398.624 406.915 399.013 406.136C399.403 404.967 400.182 404.772 401.351 404.577C405.442 403.798 409.339 404.772 413.235 406.33C414.599 406.915 415.573 408.084 415.962 409.837C416.157 410.811 416.547 411.785 417.131 412.954C419.664 418.214 424.534 421.526 428.43 425.617C429.404 426.591 430.573 426.591 431.742 425.812C432.327 425.422 432.911 424.838 433.495 424.253C436.418 421.331 436.418 421.915 437.976 424.643C438.366 425.422 439.145 426.201 439.729 426.981C440.898 428.734 441.288 430.487 440.704 432.241C440.119 434.578 440.314 436.721 440.704 439.059C440.898 440.618 441.093 442.176 439.729 443.345C437.587 445.293 437.392 447.631 438.561 450.163C438.755 450.748 438.95 451.332 438.561 451.722C437.392 453.28 437.392 455.423 435.833 456.787C435.444 457.177 434.859 457.956 434.859 458.346C434.664 462.826 433.885 467.502 437.197 471.398C437.976 472.372 438.755 472.762 439.924 472.762C441.093 472.762 442.457 472.567 443.431 473.346C445.964 475.489 448.691 477.632 449.275 481.334C449.665 483.671 450.834 485.425 452.782 486.983C454.341 488.347 455.12 488.542 457.068 487.373C457.652 486.983 458.237 486.788 458.821 486.399C459.795 485.814 460.769 485.035 461.743 486.009C462.717 486.788 462.717 487.957 462.328 489.126C461.743 490.879 461.743 492.828 461.938 494.581C461.938 496.139 461.549 497.308 460.575 498.477C458.042 501.789 458.821 505.101 462.523 507.049C464.666 508.218 465.445 510.166 464.471 512.504C464.276 513.088 463.886 513.673 463.497 514.257C462.328 515.621 462.328 516.984 463.692 518.348C465.445 520.102 467.003 522.05 469.536 523.024C470.12 523.218 470.9 523.803 471.289 524.387C472.263 525.556 473.432 526.336 474.601 526.92C476.354 527.699 477.913 528.673 480.056 529.063C483.757 529.647 485.316 532.764 486.095 535.881C487.459 540.947 486.68 546.401 486.68 551.661C486.68 552.635 486.095 553.804 485.316 554.583C482.978 557.506 483.173 559.649 485.705 562.376C487.848 564.519 489.991 567.052 493.303 567.831C493.888 568.026 494.667 568.415 494.472 569.194C494.277 569.779 493.693 569.974 493.303 570.169C492.719 570.363 491.939 570.363 491.355 570.363C489.212 570.753 486.874 569.779 484.926 569.974C482.588 570.363 481.42 569.194 480.445 567.441C479.082 564.519 476.549 563.74 473.627 563.935C472.069 564.129 470.51 564.519 469.341 565.883C467.977 567.636 466.224 567.636 464.471 566.662C462.717 565.688 461.159 564.519 459.99 562.96C457.847 559.843 455.704 560.038 453.172 562.181C451.808 563.35 450.639 563.35 449.47 562.181C448.496 561.207 447.327 561.402 446.158 561.792C443.821 562.571 443.626 562.571 443.236 560.038C442.847 557.7 441.288 556.337 439.924 554.973C438.561 553.609 436.028 553.804 433.885 555.557C432.132 556.921 430.184 558.09 427.846 558.285C427.067 558.285 426.287 558.675 425.508 559.454C424.144 560.817 422.976 562.376 421.417 563.545C420.053 564.519 419.664 566.077 419.274 567.441C418.69 569.584 419.469 571.727 420.248 573.87C420.443 574.454 421.222 575.039 420.638 575.623C419.079 577.766 419.859 580.299 419.664 582.637C419.664 583.416 419.664 584.195 420.248 584.78C421.612 585.948 422.391 587.507 424.144 588.286C425.703 589.065 425.703 589.845 424.729 591.014C423.755 592.182 422.586 593.351 421.612 594.325C419.079 596.468 419.274 599.196 420.248 601.728C420.833 602.897 420.638 603.676 419.859 604.651C418.69 606.209 417.326 607.183 415.573 607.183C413.624 607.183 411.871 607.573 410.118 608.157C408.754 608.547 407.78 609.326 407.585 610.3C407.001 612.248 406.416 614.002 407.001 616.145C407.78 619.262 407.196 620.43 404.468 621.989C403.494 622.573 401.936 622.963 401.546 624.132C400.377 626.859 397.65 627.833 395.702 629.392C394.143 630.561 392.585 631.535 391.221 632.898C388.494 635.626 388.104 638.353 390.052 641.665C391.611 644.003 391.221 646.535 390.247 648.873C390.052 649.458 389.468 649.847 389.078 649.652C385.961 647.704 382.649 648.678 379.532 648.484C376.61 648.289 374.272 649.458 371.934 651.211C369.597 652.964 369.012 657.835 371.155 659.783C372.714 661.146 373.688 662.705 373.688 664.848C373.688 665.237 373.883 665.627 374.272 666.017C376.22 668.549 377.194 671.861 381.091 672.835C381.675 673.03 382.26 673.615 382.454 674.199C383.234 675.173 384.208 675.368 385.182 675.563C387.13 675.757 389.273 675.757 390.831 677.121C392.39 678.485 394.338 679.459 396.091 680.433C399.598 682.186 403.105 682.966 407.001 682.381C408.949 681.991 409.728 681.017 410.118 679.264C411.287 673.809 411.287 673.225 416.157 677.121C418.884 679.264 420.638 678.874 422.001 675.563C422.586 674.199 423.365 673.03 424.924 672.64C425.898 672.251 426.677 671.861 427.456 671.277C429.21 670.303 430.768 669.134 432.911 669.329C433.69 669.329 434.08 669.134 434.664 668.549C437.976 665.432 441.872 663.874 446.548 664.069C448.691 664.263 450.639 664.069 452.782 664.069C456.289 664.069 458.626 666.796 461.743 667.38C462.133 667.38 462.328 667.965 462.523 668.355C463.302 669.523 464.276 670.497 464.666 671.666C465.835 674.589 467.783 677.511 466.224 681.017C466.029 681.407 466.029 681.797 466.029 682.381C465.834 684.719 467.198 685.888 469.341 685.498C472.069 684.914 473.627 683.16 474.796 680.823C475.575 679.069 475.965 677.121 476.744 675.368C479.082 670.108 478.692 665.238 475.575 660.562C474.796 659.588 474.017 659.003 472.653 658.809C469.146 658.614 468.757 658.224 468.367 654.718C468.367 654.133 468.172 653.354 468.367 652.769C468.757 651.211 468.562 650.042 467.588 648.873C466.614 647.704 466.614 646.146 467.198 644.782C467.393 644.198 467.977 643.613 468.757 644.003C470.51 645.172 472.653 645.172 474.601 645.951C479.082 647.899 483.952 644.977 484.147 640.107C484.147 638.548 484.537 637.379 485.9 636.405C487.264 635.431 487.848 634.067 488.238 632.509C488.628 630.755 489.602 629.587 491.55 629.392C492.524 629.392 493.303 629.197 493.888 628.613C495.251 627.249 496.42 627.638 497.784 628.807C499.732 630.366 501.485 630.171 503.239 628.223C508.109 623.353 512.979 618.287 518.239 613.612C521.551 610.495 522.915 606.793 522.525 602.508C522.525 602.118 522.525 601.728 522.33 601.144C522.136 599.585 522.525 598.806 524.279 599.001C526.811 599.391 528.759 598.222 530.513 596.468C532.266 594.715 534.214 592.962 534.604 590.429C534.798 589.26 535.383 588.091 536.357 587.312C537.331 586.533 537.721 585.364 538.11 584.195C539.279 580.104 541.617 576.792 544.734 574.065C544.929 573.87 545.124 573.675 545.513 573.286C546.098 572.701 546.487 572.117 546.487 571.337C546.487 568.805 547.072 566.272 546.682 563.545C545.903 557.895 546.292 557.506 551.942 557.506C553.695 557.506 555.254 557.506 556.812 556.142C558.176 554.973 560.124 554.389 562.072 554.583C563.436 554.778 564.605 554.389 565.774 553.415C568.306 551.466 570.839 551.077 573.566 553.22C575.904 555.168 578.826 554.194 581.554 554.583C583.307 554.778 584.086 553.415 585.06 552.441C586.034 551.661 586.814 551.272 587.788 552.441C588.957 553.609 590.515 553.415 591.879 553.22C594.411 552.83 596.944 552.635 599.282 551.856C601.619 551.077 603.568 551.466 605.516 552.83C606.685 553.804 608.048 554.583 609.607 554.778C611.36 555.168 611.555 555.752 610.776 557.311C609.997 558.869 609.607 560.623 609.607 562.376C609.412 566.077 609.802 566.662 613.698 567.052C614.477 567.052 615.256 567.052 616.036 567.441C617.789 568.22 619.932 568.22 621.296 569.779C622.27 570.753 622.854 571.727 622.465 572.896C622.075 574.065 620.906 574.649 619.932 574.454C617.594 574.26 615.451 574.844 613.308 575.818C612.334 576.403 611.165 576.597 610.191 576.403C608.633 576.403 607.464 576.597 606.879 578.351C606.295 580.104 607.074 581.273 608.048 582.442C609.996 584.585 611.945 585.754 614.867 585.364C616.425 585.169 617.984 585.169 619.542 585.364C622.659 585.754 625.971 586.338 628.309 588.676C630.257 590.624 632.4 591.988 635.322 592.377C637.66 592.767 639.998 593.351 641.167 595.689C643.115 599.391 646.232 600.949 649.933 601.533C654.804 602.313 659.479 602.118 664.349 601.728C667.272 601.534 670.583 601.533 673.116 599.391C673.895 598.806 675.064 599.001 676.038 599.001C679.35 599.001 682.857 599.001 686.169 599.001C688.506 599.001 691.234 598.806 693.182 597.442C695.13 596.079 697.078 595.689 699.221 595.689C700.39 595.689 701.559 595.689 702.728 595.299C704.481 594.715 705.845 594.91 707.208 596.274C707.988 597.053 708.767 597.832 709.936 597.832C711.494 597.832 712.274 598.611 713.053 600.17C714.027 601.923 715.585 603.871 717.534 604.066C720.261 604.261 723.183 605.04 725.326 602.118C725.716 601.534 726.495 601.339 727.274 600.949C729.222 599.78 729.417 599.975 730.196 602.118C731.17 605.04 730.781 607.962 730.781 610.885C730.781 613.222 730.976 615.17 733.703 616.145C733.313 616.924 732.924 616.924 732.729 616.924C728.443 616.729 724.157 617.119 720.456 619.846C719.676 620.43 718.702 620.82 717.728 621.015C716.949 621.21 716.365 621.599 715.78 622.184C712.274 625.496 707.988 626.859 703.312 627.249C699.221 627.444 696.299 629.392 693.571 631.924C690.454 634.847 687.532 637.964 683.831 640.107C680.909 641.665 678.376 643.808 676.233 646.146C675.454 646.925 674.675 648.289 673.701 648.678C669.804 650.237 666.492 652.769 663.181 655.107C659.869 657.445 657.336 660.172 656.362 664.653C655.193 670.692 661.427 676.731 667.466 676.342C668.83 676.342 670.583 676.147 671.752 674.978C673.701 673.03 676.038 672.64 678.766 672.835C680.129 673.03 681.688 672.835 683.052 672.835C687.337 672.64 690.454 675.368 693.571 677.511C695.714 679.069 697.273 681.407 699.805 682.576C700.39 682.771 700.585 683.55 700.974 684.134C704.481 690.174 711.494 690.563 715.585 687.446C717.339 686.083 718.897 686.472 720.456 687.251C722.599 688.225 724.742 689.589 726.495 691.537C729.612 695.044 731.365 699.135 731.95 703.811C732.145 705.369 731.95 706.928 733.313 708.096C734.093 708.681 734.093 709.655 733.898 710.629C733.119 712.772 732.339 714.915 730.976 716.668C729.612 718.227 728.833 719.785 728.443 721.928C728.053 725.435 727.859 728.942 728.443 732.448C728.833 734.786 728.248 735.955 725.91 736.539C725.326 736.734 724.742 736.734 724.352 736.734C719.871 738.098 717.923 740.825 719.287 744.527C719.871 746.28 720.651 747.644 721.819 749.007C723.378 750.761 725.326 751.54 727.079 752.709C728.443 753.683 730.002 754.072 731.365 753.098C732.534 752.319 733.313 752.904 734.287 753.683C736.041 755.436 737.599 757.189 739.353 758.748C742.47 761.475 745.781 763.813 750.457 763.423C753.379 763.229 756.301 763.034 759.224 763.229C760.782 763.229 762.341 762.839 763.899 762.255C766.626 761.281 768.964 759.917 771.497 758.358C774.614 756.41 777.341 754.072 778.9 750.761C779.095 750.176 779.679 749.787 780.069 749.202C781.627 746.864 784.16 746.085 786.497 745.111C788.64 744.137 789.809 742.773 789.809 740.436C789.809 737.513 791.173 734.981 793.316 732.838C795.069 731.084 797.017 729.721 798.381 727.773C800.329 725.435 802.667 724.071 805.589 723.487C807.148 723.097 808.317 722.513 809.485 721.344C812.018 718.616 814.94 716.668 819.031 717.253C821.174 717.642 823.317 717.253 825.071 716.279C826.629 715.499 827.603 715.694 828.772 716.473C829.551 717.058 830.331 717.642 831.11 718.227C833.058 719.98 835.201 719.98 837.149 718.227C838.902 716.668 840.071 714.915 840.071 712.382C840.071 708.681 842.409 706.148 845.331 705.174C848.253 704.2 850.591 702.642 852.929 700.888C855.851 698.745 857.994 695.823 858.384 691.927C858.578 690.174 859.358 688.615 860.527 687.641C863.449 685.108 869.098 684.914 872.605 687.057C876.696 689.589 880.398 692.706 883.709 696.213C885.658 698.356 887.606 698.551 890.138 696.797C891.112 696.213 892.281 695.628 893.45 695.628C894.619 695.628 895.788 695.239 896.567 694.654C899.489 692.317 902.217 692.317 905.334 694.07C908.84 696.018 912.737 694.654 914.88 691.148C915.659 689.979 916.438 689.589 917.802 689.394C919.75 689.2 921.698 688.81 923.646 688.42C925.984 688.031 927.932 685.693 927.737 683.55C927.542 681.991 927.542 680.238 926.568 678.874C923.257 673.809 924.815 667.965 930.659 664.848C933.971 663.095 934.945 659.783 936.893 657.055C937.088 656.666 937.088 655.886 937.088 655.497C936.114 652.38 934.556 649.847 931.049 648.873C930.075 648.678 929.101 648.289 928.322 647.704C926.958 646.341 925.4 646.341 923.841 646.341C918.191 646.341 912.542 646.341 906.892 646.341C904.554 646.341 902.412 646.73 900.463 648.094C898.71 649.263 897.152 650.432 896.177 652.38C894.229 655.886 891.697 656.471 888.385 654.133C887.995 653.743 887.606 653.354 887.216 652.964C886.047 651.99 885.268 650.821 884.294 649.847C882.735 648.289 879.618 648.289 879.229 650.237C878.449 653.549 875.917 655.497 874.553 658.419C873.579 660.367 872.215 661.731 869.878 661.926C869.293 661.926 868.709 662.315 868.124 662.705C866.176 663.484 864.033 664.458 861.89 664.848C858.384 665.627 855.461 663.679 853.124 661.341C850.007 658.224 847.085 655.107 843.968 651.99C841.63 649.652 840.461 646.146 837.733 644.198C837.539 644.003 837.539 643.808 837.344 643.613C836.759 640.886 834.032 639.327 833.253 636.795C828.188 631.924 825.265 625.69 822.148 619.651C819.226 613.807 817.668 607.183 815.33 601.144C815.135 600.754 815.135 600.17 814.94 599.975C812.602 597.832 812.992 595.105 812.992 592.377C812.992 586.923 815.525 584 820.979 582.831C821.759 582.637 822.538 582.442 823.317 581.857C824.681 581.078 826.239 580.104 827.798 579.714C829.356 579.325 830.331 578.351 830.915 577.182C831.889 575.234 833.642 573.675 834.811 571.922C835.785 570.363 836.759 570.363 838.513 571.532C839.097 571.922 839.487 572.311 840.071 572.701C840.85 573.48 842.214 573.675 842.799 573.091C844.747 570.948 847.669 570.363 849.617 568.22C852.539 565.298 855.072 561.986 858.578 559.649C861.306 557.895 863.644 555.752 865.786 553.22C866.566 552.246 867.735 551.856 868.124 550.492C869.488 545.232 873.774 542.7 878.449 540.752C881.372 539.388 884.684 538.804 887.801 537.83C891.502 536.661 895.593 536.661 899.294 538.804C902.411 540.557 904.165 540.167 906.697 537.635C908.646 535.687 910.594 533.544 912.737 531.595C913.126 531.206 913.711 530.621 914.295 530.427C917.217 529.063 919.75 527.115 922.867 526.141C926.374 524.972 929.685 524.387 932.997 526.141C934.945 527.115 936.114 526.92 937.673 525.556C942.153 521.27 946.05 516.205 951.699 513.088C953.647 512.114 955.79 510.945 957.154 509.192C957.349 508.802 957.933 508.802 958.323 508.802C961.05 508.802 963.778 507.828 966.115 509.971C967.674 511.14 969.622 510.75 970.596 509.582C971.765 508.023 972.739 506.465 973.713 504.906C975.856 501.205 977.609 497.503 980.921 494.581C982.675 493.022 984.233 490.879 986.766 490.879C990.662 490.879 994.363 490.1 998.26 489.905C1000.01 489.711 1001.96 490.1 1003.32 488.542C1003.91 487.762 1005.08 487.957 1006.25 487.957C1007.81 487.957 1009.56 488.152 1011.12 487.957C1014.62 487.568 1018.33 488.347 1021.83 487.178C1025.34 486.009 1027.48 482.502 1026.51 478.996C1026.31 478.217 1025.73 477.632 1025.53 477.048C1024.75 475.1 1024.36 473.346 1026.12 471.788C1027.09 471.008 1027.68 469.84 1028.65 468.866C1030.4 467.112 1030.21 464.969 1028.26 463.216C1027.29 462.242 1026.7 461.268 1025.92 460.099C1025.34 459.514 1025.14 458.735 1025.73 457.956C1026.7 456.592 1026.51 455.034 1026.51 453.475C1026.51 449.579 1026.51 445.878 1026.51 441.981C1026.51 439.059 1027.68 436.721 1030.01 435.163C1032.94 433.409 1036.05 431.267 1039.95 431.656C1042.48 432.046 1044.43 431.072 1046.38 429.124C1047.94 427.565 1048.91 425.422 1051.25 424.838C1054.37 423.864 1055.15 421.721 1055.34 418.798C1055.53 416.656 1055.34 414.707 1055.34 412.564C1055.73 408.084 1056.31 406.915 1060.99 407.11C1071.51 407.304 1081.83 405.941 1092.16 405.941C1098.2 405.941 1104.24 405.941 1110.28 405.941C1113.78 405.941 1116.9 403.019 1117.29 399.512C1117.68 394.642 1117.49 389.576 1117.49 384.706C1117.49 382.368 1117.1 379.836 1119.04 377.888C1119.24 377.693 1119.43 377.108 1119.43 376.719C1119.63 371.654 1121.58 367.368 1124.69 363.666C1126.45 361.523 1126.06 359.38 1125.67 357.043C1125.47 355.289 1123.52 354.705 1121.77 354.51C1120.6 354.315 1119.63 353.536 1119.63 352.367C1119.63 348.86 1118.46 345.743 1116.71 342.821C1116.51 342.432 1116.32 342.042 1116.51 341.458C1116.9 338.73 1115.34 336.587 1113.98 334.444C1112.03 331.522 1109.89 328.989 1105.8 329.769C1105.02 329.964 1104.04 329.769 1103.26 329.574C1101.51 329.184 1100.54 328.015 1101.12 326.262C1101.71 324.509 1101.71 322.755 1101.71 321.002C1101.71 317.495 1104.24 315.158 1105.6 312.235C1105.99 311.456 1106.97 311.261 1107.74 310.872C1110.47 309.898 1113.39 310.093 1116.12 310.287C1117.29 310.287 1118.46 310.287 1119.24 309.508C1121.19 307.95 1122.55 306.001 1123.14 303.664H22.439C18.7376 303.859 17.7635 305.612 18.3479 307.95ZM830.915 648.678C832.668 650.042 834.616 651.211 835.59 653.354C836.175 654.523 837.149 655.302 838.123 656.276C839.292 657.445 840.461 658.809 841.24 660.367C841.63 661.146 841.63 662.12 841.045 662.705C840.266 663.289 839.487 663.484 838.708 663.095C836.759 661.731 834.811 660.562 832.279 660.172C831.499 659.978 830.915 659.198 830.331 658.419C828.577 656.081 828.772 651.406 830.915 648.678ZM807.927 623.547C808.317 622.768 809.096 622.184 810.654 622.573C812.992 622.768 815.525 623.547 816.304 627.054C816.499 627.639 816.694 628.028 816.304 628.613C815.914 629.002 815.33 629.197 814.745 628.807C812.602 627.833 810.46 626.664 808.511 625.496C807.927 625.106 807.537 624.327 807.927 623.547ZM805.784 604.261C806.174 604.456 806.758 605.235 806.758 605.819C806.953 608.742 807.732 611.664 807.537 614.586C807.537 615.365 807.343 616.145 806.368 616.339C805.394 616.534 805.005 615.95 804.615 615.17C804.226 614.391 804.42 613.417 804.226 612.638C804.031 610.69 803.446 610.3 801.498 610.495C801.109 610.495 800.719 610.69 800.329 610.885C798.576 611.079 797.602 610.495 797.407 608.547C797.212 607.378 797.407 606.209 797.407 604.456C797.407 603.482 797.212 602.118 797.602 600.754C798.186 599.196 798.966 598.806 800.134 599.78C801.888 601.144 803.446 603.092 805.784 604.261ZM795.459 591.403C795.849 591.208 796.238 591.014 796.628 591.014C797.602 591.014 797.991 589.26 799.16 590.234C799.355 590.234 799.355 590.624 799.355 590.819C799.16 591.598 796.823 593.936 796.238 593.936C795.459 593.936 794.874 593.351 794.68 592.572C794.485 591.988 794.874 591.598 795.459 591.403ZM787.082 612.053C786.692 613.612 785.523 613.612 784.549 613.612C782.406 613.612 781.822 613.222 781.822 611.079C781.822 609.91 781.627 608.547 783.38 608.352C784.16 608.352 787.277 611.274 787.082 612.053ZM741.69 588.091C743.638 587.897 745.392 587.312 747.34 586.338C749.288 585.364 751.236 585.754 753.379 586.728C757.081 588.676 760.198 588.091 763.51 585.169C764.873 584 765.847 583.416 767.99 584.39C770.718 585.754 774.029 586.143 776.757 587.507C777.341 587.897 778.12 587.897 778.51 588.481C779.874 589.845 781.238 591.014 783.186 591.014C784.355 591.014 784.939 591.988 784.939 593.157C784.939 593.351 784.939 593.741 784.744 593.936C783.186 595.494 783.38 597.637 782.991 599.391C782.796 600.559 782.601 601.533 782.017 602.508C781.432 603.676 780.458 604.261 779.289 603.287C776.952 601.144 774.224 601.339 771.497 601.339C770.328 601.339 769.354 601.339 768.185 601.144C766.237 601.144 764.678 600.17 763.704 598.416C761.951 595.105 759.224 593.741 755.522 594.131C753.574 594.325 751.626 594.52 749.678 594.715C747.73 594.91 745.976 594.91 744.807 592.962C744.028 591.598 742.47 591.403 741.301 590.624C740.716 590.234 740.132 589.845 740.327 589.065C740.327 588.481 740.911 588.286 741.69 588.091ZM631.036 554.973C632.205 553.999 633.764 554.389 635.127 554.194C636.686 554.194 638.439 554.194 639.998 554.973C641.167 555.558 641.361 556.532 640.193 557.116C639.413 557.7 638.634 558.285 637.855 558.869C637.076 559.454 635.907 559.649 635.127 559.064C633.959 558.09 632.79 557.701 631.231 557.311C630.647 557.116 630.257 556.726 630.257 556.142C630.062 555.558 630.452 555.363 631.036 554.973ZM614.867 551.661C615.841 550.687 616.815 549.713 617.399 548.544C617.984 547.375 619.348 547.765 620.127 548.544C621.101 549.713 622.075 550.882 623.049 552.051C623.439 552.441 624.023 553.025 623.633 553.804C623.244 554.389 622.659 554.389 622.27 554.389C621.88 554.389 621.685 554.194 621.101 554.194C619.737 554.389 618.179 554.583 616.425 554.778C615.646 554.778 614.867 554.778 614.477 553.999C614.088 552.83 614.477 552.246 614.867 551.661ZM502.459 577.182C503.239 576.013 504.213 575.234 505.771 575.234C507.525 575.234 508.888 576.013 509.278 577.571C509.862 579.909 511.421 581.273 512.785 582.831C513.174 583.221 513.759 583.805 513.953 584.39C514.343 584.974 515.317 585.559 514.538 586.338C513.759 587.117 513.369 585.948 512.59 585.754C510.057 584.78 508.109 582.831 505.576 581.663C504.797 581.273 503.823 580.883 503.239 579.909C502.849 579.13 501.68 578.546 502.459 577.182Z" fill="#E1F5F7"/>
<path d="M1103.07 310.872C1103.46 310.093 1104.43 309.898 1105.21 309.508C1107.94 308.534 1110.86 308.729 1113.59 308.924C1114.76 308.924 1115.93 308.924 1116.71 308.144C1118.85 306.196 1120.8 304.053 1120.8 300.742C1120.8 296.456 1117.68 296.066 1115.15 297.624C1113 298.988 1111.25 298.793 1109.5 297.624C1108.13 296.845 1106.58 296.456 1105.41 297.235C1103.46 298.404 1102.1 297.43 1100.73 296.456C1099.17 295.482 1098.39 293.923 1097.22 292.559C1096.25 291.585 1097.03 290.027 1098.2 289.248C1100.93 288.079 1103.46 286.715 1106.38 286.325C1109.11 285.936 1110.86 284.572 1111.06 281.65C1111.25 280.286 1111.45 278.922 1112.23 277.948C1114.56 275.026 1116.12 271.714 1118.46 268.792C1120.8 265.87 1120.41 262.363 1120.21 259.246C1120.02 255.155 1118.07 251.843 1114.95 249.116C1113.78 248.142 1112.81 246.583 1111.84 245.22C1110.08 242.297 1110.08 241.908 1112.61 239.57C1113.59 238.596 1114.37 237.622 1115.34 236.843C1116.32 236.063 1116.32 235.284 1116.51 234.31C1116.9 231.388 1114.95 230.024 1113.2 228.855C1110.86 227.297 1104.63 228.466 1102.48 230.414C1101.12 231.778 1099.76 233.141 1098.2 234.505C1096.64 236.063 1095.08 236.258 1093.52 235.284C1091.96 234.115 1090.41 233.726 1088.65 233.531C1086.32 233.336 1083 229.829 1082.61 227.492C1082.03 224.764 1080.28 222.621 1077.94 222.232C1074.63 221.452 1071.12 220.673 1067.61 221.647C1066.44 222.037 1065.28 221.842 1064.11 222.037C1062.16 222.426 1060.79 221.258 1059.63 219.699C1059.04 218.92 1058.26 217.946 1058.26 217.167C1057.87 214.05 1055.14 212.491 1053.2 210.543C1052.03 209.374 1050.66 209.569 1049.69 210.543C1048.13 212.101 1046.18 213.27 1045.4 215.413C1045.01 216.777 1043.85 217.361 1042.48 217.556C1040.34 217.946 1038.39 217.556 1036.83 215.803C1035.27 213.855 1033.33 212.881 1030.79 212.491C1028.26 212.101 1025.34 211.322 1023.59 208.79C1022.22 206.841 1020.27 206.452 1018.13 206.452C1014.82 206.452 1011.51 206.452 1008.2 206.452C1006.64 206.452 1005.27 206.062 1004.1 204.893C1002.93 203.724 1001.77 202.556 1000.6 201.387C998.259 199.049 994.363 198.659 991.441 200.218C990.467 200.802 989.883 201.971 989.298 202.945C988.324 204.504 989.298 205.867 989.688 207.426C990.272 209.374 989.493 211.322 987.934 212.296C986.181 213.27 982.674 212.881 981.116 211.517C979.752 210.348 978.194 209.179 977.22 207.621C974.882 204.698 971.96 202.75 968.063 202.556C966.31 202.556 964.946 201.776 964.362 199.828C963.972 198.659 963.193 198.075 962.219 197.296C959.686 195.153 958.518 191.841 956.375 189.308C955.79 188.529 955.595 187.555 955.595 186.581C955.206 181.71 953.647 179.762 948.972 178.399C947.998 178.204 947.413 177.619 947.024 176.84C946.439 175.866 946.049 174.892 945.66 173.918C944.101 168.658 936.504 167.879 933.581 170.801C930.27 174.113 927.347 177.814 922.282 178.788C922.087 178.788 921.893 179.178 921.503 179.373C920.334 180.542 919.165 180.347 917.996 179.373C915.853 177.814 914.1 177.814 911.957 179.373C910.788 180.152 909.814 180.736 908.451 180.931C907.476 181.126 906.697 181.71 905.918 182.49C904.165 184.243 902.216 186.386 899.684 187.165C896.957 188.139 894.814 189.893 893.45 192.425C892.671 193.594 891.697 193.594 890.723 193.01C890.138 192.62 889.748 191.841 889.554 191.062C887.8 186.581 884.294 185.217 879.813 187.165C878.644 187.75 877.28 187.75 876.112 188.529C875.722 188.919 875.137 188.724 874.553 188.334C872.994 187.165 871.631 185.996 871.046 184.048C868.709 178.399 864.228 175.282 857.994 175.282C855.072 175.282 852.344 175.282 849.422 175.282C848.448 175.282 847.474 175.282 846.695 176.061C844.162 178.009 841.24 179.762 839.292 182.295C838.707 183.074 837.928 183.659 836.954 184.048C835.59 184.827 834.227 184.243 833.642 183.074C831.694 179.373 829.551 176.061 825.85 173.723C824.681 173.139 823.707 172.165 823.122 170.996C821.369 167.684 821.369 164.177 821.564 160.476C821.564 159.891 822.343 159.307 822.733 158.917C825.46 156.385 825.07 153.073 823.707 150.346C821.953 146.839 819.616 143.722 817.278 140.41C816.499 139.241 815.914 138.267 815.719 136.903C815.524 134.76 814.94 132.617 813.771 130.864C812.992 129.5 812.992 128.721 813.966 127.358C815.914 124.24 814.745 121.708 811.239 121.513C810.459 121.513 809.68 121.513 808.901 121.513C804.225 120.929 802.277 118.981 802.082 114.695C801.888 110.993 799.16 107.292 795.459 106.512C791.952 105.733 788.64 106.123 785.718 108.071C782.017 110.409 777.925 109.629 774.029 109.629C773.445 109.629 773.055 109.045 772.666 108.655C770.523 105.733 767.211 105.538 764.289 104.954C760.782 104.175 757.275 102.811 753.379 103.395C752.795 103.395 752.015 103.201 751.626 102.616C751.041 102.032 750.457 101.253 751.236 100.668C753.379 98.7199 752.21 97.3562 750.457 95.9925C749.678 95.4081 749.093 94.434 748.119 93.6548C746.95 92.6807 746.366 91.5118 746.561 89.9533C746.755 88.7844 746.755 87.6156 746.95 86.4467C747.729 83.1348 746.755 79.823 745.197 77.0956C744.028 75.1475 743.054 73.0046 741.301 71.446C740.132 70.472 740.326 69.3031 741.69 68.5238C743.833 67.1601 745.976 65.7964 748.898 65.7964C750.262 65.7964 751.431 65.4068 752.795 65.0172C754.353 64.6276 755.327 63.6535 755.717 61.9002C756.106 60.3417 756.301 58.978 756.496 57.4195C756.691 55.861 756.496 54.1076 755.522 53.1336C753.769 51.1854 752.21 49.0425 749.872 47.6788C747.34 46.1203 745.002 44.1721 742.469 42.8085C738.378 40.2759 737.015 35.7952 735.456 31.7041C734.482 29.3663 734.482 27.0286 736.43 24.8856C737.404 23.9116 737.404 22.353 736.625 21.5738C734.677 19.6256 733.313 17.2879 730.391 16.5086C727.664 15.7294 725.715 13.9761 724.936 11.2487C723.767 7.35241 721.235 4.4302 718.507 1.70281C717.728 0.92356 716.949 0.533936 715.78 0.533936C714.221 0.533936 712.858 0.53393 711.299 0.923557C708.961 1.508 707.208 3.26132 704.87 4.23539C701.948 5.59908 701.948 5.7939 700 3.45614C698.442 1.89763 696.883 1.11837 694.545 1.11837C691.428 1.31319 688.311 1.31319 685.389 1.11837C682.077 0.923561 679.35 1.508 677.012 4.04058C674.09 7.15759 670.194 8.7161 666.882 11.2487C665.518 12.2227 664.154 12.6124 662.596 12.8072C656.946 13.5864 651.686 11.8331 647.011 8.91091C643.699 6.96278 640.192 6.96278 636.686 6.96278C633.179 6.96278 632.595 7.74203 632.4 11.2487C632.205 13.7813 632.01 16.3138 630.452 18.4568C630.062 19.0412 629.867 19.6257 629.867 20.4049C629.867 22.353 628.893 24.1064 628.893 26.2493C628.893 27.2234 628.309 28.5871 627.14 28.7819C624.412 29.5611 622.854 31.8989 620.321 33.0678C617.594 34.4315 615.061 34.6263 612.529 34.2367C611.36 34.0418 610.191 33.4574 609.802 32.0937C609.412 30.5352 608.243 29.5611 606.879 29.3663C603.762 28.7819 600.645 28.1974 597.528 28.1974C594.216 28.3923 590.71 28.7819 587.398 27.4182C582.722 25.4701 578.437 25.4701 574.345 28.3923C573.177 29.1715 572.008 30.1456 571.034 30.9248C570.254 31.5093 569.475 32.2885 568.501 32.0937C565.189 31.3145 561.683 31.8989 558.76 29.756C557.397 28.7819 556.033 28.9767 554.864 29.9508C554.085 30.5352 553.306 31.1197 552.332 31.5093C549.994 32.4833 549.02 34.4315 549.02 36.7692C549.02 38.9122 548.046 40.0811 546.682 41.4448C545.123 43.0033 542.98 44.1721 542.006 46.5099C541.227 48.2632 539.863 49.4321 538.695 50.7958C536.162 53.718 533.045 56.6402 533.435 61.3157C533.435 62.095 533.045 63.0691 532.85 63.8483C532.071 66.3809 530.707 68.7187 529.149 70.6668C526.616 73.9786 526.421 78.0697 526.616 81.966C527.006 86.8363 527.98 91.5118 529.928 96.1873C531.876 100.863 530.707 103.395 527.006 105.928C526.227 106.318 525.642 106.707 524.863 106.512C522.33 105.928 519.798 103.006 519.798 100.473C519.798 98.9147 519.408 97.7459 518.239 96.7718C515.707 94.434 513.369 92.0963 511.031 89.5637C510.057 88.3948 509.083 87.8104 507.719 87.8104C502.654 87.6156 497.394 87.2259 492.329 88.0052C490.576 88.2 489.407 89.5637 488.043 90.1481C485.316 91.5118 484.731 91.5118 482.978 89.3689C482.004 88.2 480.835 87.2259 479.666 86.2519C478.108 84.6934 475.77 84.8882 474.211 86.4467C472.068 88.3948 469.536 90.1481 467.198 91.9015C465.25 93.46 462.717 94.0444 460.964 95.9925C459.99 96.9666 457.068 96.3822 456.678 95.2133C456.094 93.46 454.925 91.9015 454.925 89.9533C454.925 85.8622 454.925 81.966 452.197 78.4593C451.223 77.0956 450.639 75.5371 449.275 74.3682C446.548 71.8357 442.846 71.6408 439.729 73.9786C437.197 75.9267 434.469 77.6801 431.158 78.6541C427.651 79.6282 425.508 81.5763 424.534 85.083C424.144 86.6415 422.975 87.6156 421.612 88.5896C419.858 89.7585 419.469 89.7585 418.689 87.6156C418.105 86.2519 418.3 84.8882 418.105 83.3297C417.91 81.7712 418.105 80.2126 416.741 79.0438C412.845 76.3164 408.949 74.9527 404.273 76.9008C401.741 78.0697 398.819 76.3164 399.013 73.589C399.208 70.8616 397.844 69.3031 396.091 67.7446C395.312 66.9653 394.533 66.7705 393.559 67.5498C391.416 69.3031 388.104 70.2772 387.325 73.3942C387.325 73.7838 386.74 74.1734 386.545 74.3682C383.623 76.5112 379.922 76.3164 377.389 73.7838C374.467 70.8616 372.714 70.472 369.207 72.4201C368.817 72.6149 368.428 72.8097 368.038 73.0045C367.064 73.9786 366.09 73.9786 364.921 73.1994C363.947 72.6149 362.973 72.2253 362.388 71.2512C361.609 70.0823 360.635 69.6927 359.271 69.6927C357.908 69.4979 356.544 69.3031 354.985 69.1083C352.648 68.7186 350.7 69.1083 348.751 70.472C346.998 71.8357 345.05 72.0305 342.907 71.8357C341.543 71.6409 340.18 71.0564 340.18 69.4979C340.374 67.1601 339.011 66.1861 337.452 65.6016C335.699 64.8224 335.309 63.6535 334.725 62.095C334.53 61.3157 334.53 60.3417 334.335 59.5624C333.946 57.2246 333.361 56.4454 330.829 56.4454C328.101 56.4454 325.374 56.4454 322.646 56.4454C320.893 56.4454 319.335 56.2506 317.776 55.6661C313.49 53.718 309.009 51.7699 304.918 49.4321C303.36 48.6529 301.996 48.0684 300.438 48.2632C299.658 48.2632 298.684 48.2632 297.71 48.2632C295.373 48.458 293.424 47.8736 291.866 45.9255C290.697 44.5618 289.139 44.1721 287.58 43.9773C286.216 43.9773 285.047 43.9773 283.684 44.1722C280.372 44.367 277.06 43.9773 274.722 41.0551C272.774 38.5226 270.242 37.7433 267.125 37.9381C265.956 38.1329 264.787 37.9381 263.423 37.9381C262.254 37.9381 260.891 37.7433 259.917 36.9641C257.384 35.0159 254.267 34.6263 251.15 34.6263C245.89 34.6263 240.63 34.6263 235.37 34.6263C231.669 34.6263 228.357 33.2626 225.435 30.9248C224.071 29.756 222.707 29.3663 220.954 29.3663C219.59 29.3663 218.032 29.3663 216.668 29.3663C214.915 29.3663 213.551 29.5611 211.992 30.5352C210.239 31.8989 207.901 32.2885 205.758 32.2885C201.667 32.2885 197.381 32.2885 193.29 32.2885C190.953 32.2885 188.42 32.4833 186.082 32.0937C181.991 31.3145 177.705 31.7041 173.614 31.7041C171.666 31.7041 169.328 31.7041 167.77 33.4574C166.211 35.2107 164.458 37.1589 163.679 39.3018C162.51 42.8085 160.367 45.341 157.834 47.8736C156.86 48.8477 156.081 50.2114 154.717 50.601C151.99 51.3802 150.042 53.3284 147.704 54.6921C145.561 56.0558 145.756 55.861 143.613 54.4973C141.275 53.1336 139.132 50.9906 136.015 50.9906C133.093 50.9906 130.366 50.9906 127.443 50.9906C125.3 50.9906 123.742 51.9647 122.768 53.9128C121.794 55.6662 121.015 57.6143 120.43 59.5624C119.651 61.3157 119.651 63.6535 120.82 65.6016C123.547 69.8875 124.132 74.1734 120.82 78.6541C119.456 80.4075 119.846 82.7452 121.209 84.3037C122.378 85.4726 123.157 86.6415 122.963 88.3948C122.378 92.4859 124.911 95.0185 128.028 96.7718C130.56 98.1355 131.34 100.084 131.729 102.811C132.119 106.707 131.924 110.798 134.651 114.11C135.041 114.695 135.431 115.279 135.431 115.864C135.431 118.006 136.405 119.565 137.574 121.318C138.353 122.487 138.937 123.851 139.717 125.02C140.301 125.799 140.106 126.383 139.522 126.968C138.743 127.747 138.158 128.526 137.184 128.721C136.6 128.916 136.015 129.306 135.82 129.89C135.041 132.033 134.651 134.566 136.21 136.124C139.132 139.046 138.937 143.137 140.691 146.449C141.86 148.592 141.275 151.32 142.249 153.657C142.639 154.826 141.86 155.8 140.885 156.385C138.158 157.943 136.015 159.891 135.236 163.008C135.041 163.593 134.846 163.982 134.457 164.567C133.872 165.736 132.509 166.125 131.729 166.905C130.95 167.684 130.171 166.515 129.392 166.32C127.054 165.931 124.716 165.541 122.573 167.294C121.989 167.879 121.015 168.268 120.235 168.268C118.677 168.463 117.508 169.437 116.534 170.606C113.806 173.918 110.689 176.84 106.988 178.983C103.871 180.736 100.559 182.879 98.2214 185.996C97.8317 186.581 97.0525 187.36 96.0784 187.555C94.5199 187.75 93.7406 188.919 92.5717 189.893C79.9089 202.556 67.246 215.218 54.7779 227.881C52.4402 230.219 49.518 231.778 48.9335 235.479C48.9335 235.674 48.5439 235.869 48.1543 236.258C46.2061 237.817 45.2321 239.96 43.8684 241.908C42.8943 243.272 42.8943 244.44 43.8684 245.804C44.6476 246.778 45.4269 247.752 45.2321 249.116C45.0373 252.233 45.8165 255.155 46.0113 258.272C46.0113 259.441 46.2062 260.61 46.9854 261.584C48.1543 262.753 47.5698 263.922 46.9854 265.091C45.6217 268.208 45.2321 271.714 43.0891 274.637C42.8943 274.831 43.0891 275.221 43.0891 275.611C43.4788 278.922 44.8425 281.455 47.9595 283.013C49.9076 283.988 50.8817 285.351 50.492 287.105C50.2972 288.079 49.9076 288.468 48.9335 288.079C46.0113 287.299 42.6995 286.91 40.7514 283.988C40.5566 283.598 40.1669 283.403 39.7773 283.208C36.8551 281.65 35.2966 281.845 32.764 284.182C30.6211 286.13 29.4522 289.053 27.1144 290.806C25.3611 292.17 23.9974 294.118 23.6078 296.456C23.413 297.624 22.4389 298.793 21.4648 299.767C19.5167 301.91 17.1789 304.053 17.9582 307.365C18.153 307.755 17.5686 308.339 17.5686 308.924C17.3737 309.508 17.1789 310.093 16.9841 310.677H1102.48C1102.87 311.067 1103.07 310.872 1103.07 310.872Z" fill="#E1F5F7"/>
<path d="M342.961 216.781L343.033 286.518C343.033 292.395 342.214 297.622 340.576 302.199C338.986 306.776 336.674 310.63 333.639 313.762C330.555 316.941 326.798 319.35 322.365 320.988C317.981 322.626 312.971 323.445 307.334 323.445C302.035 323.445 297.241 322.626 292.953 320.988C288.714 319.35 285.076 316.965 282.041 313.834C279.006 310.702 276.645 306.848 274.959 302.271C273.321 297.646 272.502 292.395 272.502 286.518L272.574 216.781H292.881L292.953 286.518C293.001 290.035 293.339 293.118 293.965 295.768C294.639 298.417 295.627 300.609 296.928 302.344C298.132 303.934 299.602 305.138 301.336 305.957C303.07 306.728 305.07 307.113 307.334 307.113C309.791 307.113 311.959 306.704 313.838 305.885C315.765 305.018 317.355 303.741 318.607 302.055C319.956 300.32 320.968 298.152 321.643 295.551C322.317 292.949 322.678 289.938 322.727 286.518L322.799 216.781H342.961ZM393.613 278.785L382.484 290.998V322H362.105V216.781H382.484V264.982L392.023 252.119L417.605 216.781H442.465L407.055 263.32L443.766 322H419.629L393.613 278.785ZM487.336 282.688H471.943V322H451.637V216.781H486.902C492.732 216.781 498.007 217.48 502.729 218.877C507.45 220.226 511.497 222.225 514.869 224.875C518.193 227.525 520.747 230.825 522.529 234.775C524.36 238.726 525.275 243.303 525.275 248.506C525.275 252.264 524.818 255.66 523.902 258.695C523.035 261.682 521.783 264.356 520.145 266.717C518.458 269.126 516.435 271.221 514.074 273.004C511.762 274.786 509.16 276.328 506.27 277.629L528.889 321.061V322H507.137L487.336 282.688ZM471.943 266.211H486.975C490.106 266.211 492.852 265.777 495.213 264.91C497.622 263.995 499.573 262.694 501.066 261.008C502.319 259.659 503.258 258.045 503.885 256.166C504.559 254.287 504.896 252.191 504.896 249.879C504.896 247.085 504.463 244.628 503.596 242.508C502.777 240.34 501.524 238.557 499.838 237.16C498.344 235.908 496.514 234.944 494.346 234.27C492.178 233.595 489.697 233.258 486.902 233.258H471.943V266.211ZM592.766 300.031H561.186L554.971 322H533.58L568.051 216.781H586.479L620.299 322H598.908L592.766 300.031ZM566.172 282.76H587.996L577.229 244.025L566.172 282.76ZM634.891 216.781H695.738V233.186H675.215V305.668H695.738V322H634.891V305.668H654.908V233.186H634.891V216.781ZM789.172 322H768.938L739.67 254.143V322H719.219V216.781H739.67L768.721 284.35L768.793 216.781H789.172V322ZM873.934 275.895H830.719V305.596H881.232V322H810.34V216.781H881.016V233.33H830.719V259.852H873.934V275.895Z" fill="white"/>
</svg>
