<svg width="491" height="443" viewBox="0 0 491 443" fill="none" xmlns="http://www.w3.org/2000/svg">
<path d="M244.236 52.1685V114.083" stroke="#2D1A14" stroke-width="1.6142" stroke-miterlimit="10" stroke-linecap="round" stroke-linejoin="round"/>
<path d="M245.268 67.7617C255.59 67.7617 263.957 59.3944 263.957 49.0728C263.957 38.7511 255.59 30.3838 245.268 30.3838C234.946 30.3838 226.579 38.7511 226.579 49.0728C226.579 59.3944 234.946 67.7617 245.268 67.7617Z" fill="#FFCF03"/>
<path d="M368.753 162.583C332.636 141.6 281.27 146.416 245.383 124.975C223.598 112.019 208.807 83.4697 190.806 65.5833C165.926 40.9322 128.663 19.3768 94.839 27.7467C48.1739 39.2123 29.141 75.0998 28.9117 111.675C28.6823 149.741 51.155 178.634 84.8639 193.998C117.656 208.789 139.67 223.006 144.141 261.302C145.976 276.895 146.32 292.832 152.167 307.393C157.9 321.611 170.054 333.994 185.991 335.14C204.45 336.516 221.19 324.592 239.65 324.248C256.39 324.019 271.754 333.076 288.15 336.516C322.661 343.625 362.447 332.503 386.983 306.82C424.591 267.149 414.386 189.183 368.753 162.583Z" fill="#E1F5F7"/>
<path d="M148.154 116.032L184.959 140.912" stroke="#2D1A14" stroke-width="1.6142" stroke-miterlimit="10" stroke-linecap="round" stroke-linejoin="round"/>
<path d="M149.001 121.677C157.549 115.89 159.787 104.271 154.001 95.7232C148.214 87.1758 136.595 84.9376 128.047 90.7239C119.5 96.5102 117.262 108.13 123.048 116.677C128.834 125.225 140.454 127.463 149.001 121.677Z" fill="#FFCF03"/>
<path d="M448.668 389.602C471.971 389.602 490.862 370.711 490.862 347.408C490.862 324.106 471.971 305.215 448.668 305.215C425.366 305.215 406.475 324.106 406.475 347.408C406.475 370.711 425.366 389.602 448.668 389.602Z" fill="#E1F5F7"/>
<path d="M29.5996 165.449C32.1958 165.449 34.3005 163.344 34.3005 160.748C34.3005 158.152 32.1958 156.047 29.5996 156.047C27.0034 156.047 24.8987 158.152 24.8987 160.748C24.8987 163.344 27.0034 165.449 29.5996 165.449Z" fill="#1D0E21"/>
<path d="M29.5996 190.788C26.9625 190.788 24.8987 188.724 24.8987 186.087C24.8987 183.45 26.9625 181.386 29.5996 181.386C32.2367 181.386 34.3005 183.45 34.3005 186.087C34.3005 188.61 32.2367 190.788 29.5996 190.788Z" fill="#1D0E21"/>
<path d="M29.5996 218.535C32.1958 218.535 34.3005 216.43 34.3005 213.834C34.3005 211.238 32.1958 209.133 29.5996 209.133C27.0034 209.133 24.8987 211.238 24.8987 213.834C24.8987 216.43 27.0034 218.535 29.5996 218.535Z" fill="#1D0E21"/>
<path d="M458.185 244.218C455.548 244.218 453.484 242.154 453.484 239.517C453.484 236.88 455.548 234.816 458.185 234.816C460.822 234.816 462.886 236.88 462.886 239.517C462.886 242.154 460.822 244.218 458.185 244.218Z" fill="#1D0E21"/>
<path d="M458.185 269.442C455.548 269.442 453.484 267.379 453.484 264.741C453.484 262.104 455.548 260.041 458.185 260.041C460.822 260.041 462.886 262.104 462.886 264.741C462.886 267.379 460.822 269.442 458.185 269.442Z" fill="#1D0E21"/>
<path d="M458.185 297.304C455.548 297.304 453.484 295.24 453.484 292.603C453.484 289.966 455.548 287.902 458.185 287.902C460.822 287.902 462.886 289.966 462.886 292.603C462.886 295.24 460.822 297.304 458.185 297.304Z" fill="#1D0E21"/>
<path d="M316.24 411.043C316.24 408.406 318.304 406.342 320.941 406.342C323.578 406.342 325.642 408.406 325.642 411.043C325.642 413.68 323.578 415.744 320.941 415.744C318.304 415.744 316.24 413.68 316.24 411.043Z" fill="#1D0E21"/>
<path d="M290.901 411.043C290.901 408.406 292.965 406.342 295.602 406.342C298.239 406.342 300.303 408.406 300.303 411.043C300.303 413.68 298.239 415.744 295.602 415.744C292.965 415.744 290.901 413.68 290.901 411.043Z" fill="#1D0E21"/>
<path d="M263.154 411.043C263.154 408.406 265.218 406.342 267.855 406.342C270.492 406.342 272.556 408.406 272.556 411.043C272.556 413.68 270.492 415.744 267.855 415.744C265.218 415.744 263.154 413.68 263.154 411.043Z" fill="#1D0E21"/>
<path d="M301.105 12.6123C301.105 9.97519 303.169 7.91138 305.806 7.91138C308.443 7.91138 310.507 9.97519 310.507 12.6123C310.507 15.2494 308.443 17.3132 305.806 17.3132C303.284 17.3132 301.105 15.2494 301.105 12.6123Z" fill="#1D0E21"/>
<path d="M280.582 17.3132C283.178 17.3132 285.283 15.2085 285.283 12.6123C285.283 10.016 283.178 7.91138 280.582 7.91138C277.986 7.91138 275.881 10.016 275.881 12.6123C275.881 15.2085 277.986 17.3132 280.582 17.3132Z" fill="#1D0E21"/>
<path d="M252.835 17.3132C255.431 17.3132 257.536 15.2085 257.536 12.6123C257.536 10.016 255.431 7.91138 252.835 7.91138C250.239 7.91138 248.134 10.016 248.134 12.6123C248.134 15.2085 250.239 17.3132 252.835 17.3132Z" fill="#1D0E21"/>
<path d="M236.669 241.122C273.333 241.122 303.055 212.119 303.055 176.341C303.055 140.564 273.333 111.561 236.669 111.561C200.005 111.561 170.283 140.564 170.283 176.341C170.283 212.119 200.005 241.122 236.669 241.122Z" fill="#FFCF03"/>
<path d="M154.345 368.276C191.009 368.276 220.731 339.273 220.731 303.495C220.731 267.718 191.009 238.714 154.345 238.714C117.681 238.714 87.9595 267.718 87.9595 303.495C87.9595 339.273 117.681 368.276 154.345 368.276Z" fill="#FFCF03"/>
<path d="M190.806 303.495C190.806 304.298 190.806 305.1 190.692 305.903C189.774 319.662 181.404 331.242 169.595 336.746C164.894 338.924 159.734 340.071 154.231 340.071C134.051 340.071 117.656 323.675 117.656 303.495C117.656 283.316 134.051 266.92 154.231 266.92H154.46C165.238 267.035 174.984 271.735 181.634 279.188C187.367 285.724 190.806 294.208 190.806 303.495Z" fill="#F5F5FF"/>
<path d="M181.748 279.303L164.435 294.667L154.345 303.495V303.266L154.46 290.08L154.575 266.92C165.352 267.035 174.984 271.735 181.748 279.303Z" fill="#9898EA"/>
<path d="M190.806 303.495C190.806 304.298 190.806 305.1 190.692 305.903L167.416 306.132L150.791 306.362L154.346 303.266L164.321 294.552L181.748 279.303C187.367 285.723 190.806 294.208 190.806 303.495Z" fill="#8383DD"/>
<path d="M190.806 305.903C189.889 319.662 181.519 331.242 169.709 336.746L156.065 316.91L152.511 311.751L150.906 306.362L167.531 306.132L190.806 305.903Z" fill="#6060CC"/>
<path d="M154.345 316.91C161.754 316.91 167.76 310.904 167.76 303.495C167.76 296.086 161.754 290.08 154.345 290.08C146.937 290.08 140.931 296.086 140.931 303.495C140.931 310.904 146.937 316.91 154.345 316.91Z" fill="#FFCF03"/>
<path d="M49.5498 302.693C59.8715 302.693 68.2388 294.325 68.2388 284.004C68.2388 273.682 59.8715 265.315 49.5498 265.315C39.2282 265.315 30.8608 273.682 30.8608 284.004C30.8608 294.325 39.2282 302.693 49.5498 302.693Z" fill="#FFCF03"/>
<path d="M68.2388 284.004H91.17" stroke="#2D1A14" stroke-width="1.6142" stroke-miterlimit="10" stroke-linecap="round" stroke-linejoin="round"/>
<path d="M33.9565 393.615C33.9565 393.615 14.8089 400.609 1.73804 418.381" stroke="#2D1A14" stroke-width="1.7546" stroke-miterlimit="10" stroke-linecap="round" stroke-linejoin="round"/>
<path d="M32.9245 416.546C32.9245 419.413 30.6314 421.706 27.765 421.706C24.8986 421.706 22.6055 419.413 22.6055 416.546C22.6055 413.68 24.8986 411.387 27.765 411.387C30.6314 411.387 32.9245 413.68 32.9245 416.546Z" stroke="#2D1A14" stroke-width="1.7546" stroke-miterlimit="10" stroke-linecap="round" stroke-linejoin="round"/>
<path d="M378.843 64.4368C378.843 64.4368 399.595 57.7867 414.271 39.5564" stroke="#2D1A14" stroke-width="1.868" stroke-miterlimit="10" stroke-linecap="round" stroke-linejoin="round"/>
<path d="M380.792 40.0152C380.906 37.0341 383.429 34.6263 386.525 34.741C389.506 34.8556 391.913 37.3781 391.799 40.4738C391.684 43.4549 389.162 45.8627 386.066 45.748C383.085 45.6333 380.677 43.1109 380.792 40.0152Z" stroke="#2D1A14" stroke-width="1.868" stroke-miterlimit="10" stroke-linecap="round" stroke-linejoin="round"/>
<path d="M237.471 215.21C231.738 215.21 227.152 210.509 227.152 204.891V189.298C227.152 183.565 231.853 178.979 237.471 178.979C243.204 178.979 247.79 183.679 247.79 189.298V204.891C247.79 210.624 243.204 215.21 237.471 215.21Z" fill="#F5F5FF"/>
<path d="M237.242 220.714C236.095 220.714 235.178 219.796 235.178 218.65V213.949C235.178 212.802 236.095 211.885 237.242 211.885C238.389 211.885 239.306 212.802 239.306 213.949V218.65C239.421 219.796 238.389 220.714 237.242 220.714Z" fill="#2D1A14"/>
<path d="M236.669 192.393C220.044 192.393 206.399 178.749 206.399 162.124C206.399 145.499 220.044 131.855 236.669 131.855C253.294 131.855 266.938 145.499 266.938 162.124C266.823 178.749 253.294 192.393 236.669 192.393Z" fill="#F5F5FF"/>
<path d="M233.688 204.203C232.656 204.203 231.739 203.4 231.739 202.254V167.169C231.739 166.137 232.541 165.22 233.688 165.22C234.72 165.22 235.637 166.022 235.637 167.169V202.254C235.522 203.4 234.72 204.203 233.688 204.203Z" stroke="#472A1C" stroke-width="0.435" stroke-miterlimit="10" stroke-linecap="round" stroke-linejoin="round"/>
<path d="M239.994 204.203C238.962 204.203 238.045 203.4 238.045 202.254V167.169C238.045 166.137 238.847 165.22 239.994 165.22C241.026 165.22 241.943 166.022 241.943 167.169V202.254C241.943 203.4 241.026 204.203 239.994 204.203Z" stroke="#472A1C" stroke-width="0.435" stroke-miterlimit="10" stroke-linecap="round" stroke-linejoin="round"/>
<path d="M227.152 198.699V204.776C227.152 210.509 231.853 215.095 237.471 215.095C243.204 215.095 247.79 210.394 247.79 204.776V198.699H227.152Z" fill="#9898EA"/>
<path d="M156.983 368.047V405.081" stroke="#2D1A14" stroke-width="1.6142" stroke-miterlimit="10" stroke-linecap="round" stroke-linejoin="round"/>
<path d="M155.263 430.19C165.584 430.19 173.952 421.823 173.952 411.501C173.952 401.18 165.584 392.812 155.263 392.812C144.941 392.812 136.574 401.18 136.574 411.501C136.574 421.823 144.941 430.19 155.263 430.19Z" fill="#FFCF03"/>
<path d="M365.772 231.72C357.402 225.758 355.453 214.063 361.415 205.693C367.377 197.323 379.072 195.374 387.442 201.336C395.812 207.298 397.761 218.993 391.799 227.363C385.837 235.733 374.142 237.682 365.772 231.72Z" fill="#FFCF03"/>
<path d="M365.772 231.72L352.472 250.409" stroke="#2D1A14" stroke-width="1.6142" stroke-miterlimit="10" stroke-linecap="round" stroke-linejoin="round"/>
<path d="M389.9 393.258C391.478 383.059 384.489 373.511 374.289 371.932C364.089 370.354 354.541 377.343 352.963 387.543C351.385 397.743 358.374 407.291 368.574 408.869C378.774 410.447 388.322 403.458 389.9 393.258Z" fill="#FFCF03"/>
<path d="M360.383 375.385L346.854 356.925" stroke="#2D1A14" stroke-width="1.6142" stroke-miterlimit="10" stroke-linecap="round" stroke-linejoin="round"/>
<path d="M320.597 365.983C357.261 365.983 386.983 336.98 386.983 301.202C386.983 265.425 357.261 236.421 320.597 236.421C283.933 236.421 254.211 265.425 254.211 301.202C254.211 336.98 283.933 365.983 320.597 365.983Z" fill="#FFCF03"/>
<path d="M305.233 293.75H290.213V331.93H305.233V293.75Z" fill="#6060CC"/>
<path d="M325.757 278.615H310.737V331.816H325.757V278.615Z" fill="#9898EA"/>
<path d="M348.802 268.41H332.521V331.242H348.802V268.41Z" fill="#8383DD"/>
<path d="M276.569 331.471H357.058" stroke="#2D1A14" stroke-width="1.4654" stroke-miterlimit="10" stroke-linecap="round" stroke-linejoin="round"/>
<path d="M136.918 181.157H129.58C128.548 176.112 126.369 171.411 123.274 167.513L128.662 162.124C130.956 159.831 130.841 156.162 128.548 153.869C126.14 151.69 122.356 151.69 120.063 153.983L114.56 159.487C110.776 157.079 106.419 155.359 101.718 154.557V146.76C101.718 143.55 99.0811 140.913 95.7561 140.913C92.431 140.913 89.7939 143.55 89.7939 146.76V154.557C85.093 155.359 80.7361 157.079 76.9524 159.487L71.4489 153.983C69.1558 151.69 65.3721 151.576 62.9644 153.869C60.5566 156.047 60.5566 159.831 62.8497 162.124L68.2386 167.513C65.1428 171.526 62.9644 176.112 61.9325 181.157H54.5944C51.2694 181.157 48.6323 183.794 48.6323 187.004C48.6323 190.215 51.2694 192.852 54.5944 192.852H61.5885C62.3911 198.126 64.4549 203.056 67.5506 207.184L62.8497 211.885C60.5566 214.178 60.6712 217.847 62.9644 220.14C64.1109 221.172 65.6015 221.745 67.092 221.745C68.6972 221.745 70.1877 221.172 71.4489 219.911L75.9205 215.325C79.9335 218.076 84.6344 220.025 89.7939 220.943V227.134C89.7939 230.345 92.431 232.982 95.7561 232.982C99.0811 232.982 101.718 230.345 101.718 227.134V220.943C106.763 220.025 111.464 218.191 115.592 215.325L120.063 219.911C121.21 221.057 122.815 221.745 124.42 221.745C125.911 221.745 127.401 221.172 128.548 220.14C130.956 217.962 130.956 214.178 128.662 211.885L123.962 207.184C126.943 202.942 129.121 198.126 129.924 192.852H136.918C140.243 192.852 142.88 190.215 142.88 187.004C142.88 183.794 140.243 181.157 136.918 181.157ZM95.2974 202.483C86.6982 202.483 79.7042 195.718 79.7042 187.234C79.7042 178.864 86.6982 171.984 95.2974 171.984C103.897 171.984 110.891 178.749 110.891 187.234C110.891 195.718 103.897 202.483 95.2974 202.483Z" fill="#FFCF03"/>
<path d="M95.7561 195.718C100.442 195.718 104.241 192.022 104.241 187.463C104.241 182.904 100.442 179.208 95.7561 179.208C91.0702 179.208 87.2715 182.904 87.2715 187.463C87.2715 192.022 91.0702 195.718 95.7561 195.718Z" stroke="#472A1C" stroke-width="1.5217" stroke-miterlimit="10"/>
<path d="M95.7561 213.949C110.764 213.949 122.93 202.091 122.93 187.463C122.93 172.836 110.764 160.978 95.7561 160.978C80.7485 160.978 68.5825 172.836 68.5825 187.463C68.5825 202.091 80.7485 213.949 95.7561 213.949Z" stroke="#472A1C" stroke-width="1.5217" stroke-miterlimit="10"/>
<path d="M394.78 136.097H388.244C387.327 131.511 385.378 127.269 382.626 123.6L387.442 118.669C389.506 116.606 389.391 113.166 387.327 111.217C385.263 109.153 381.824 109.267 379.874 111.331L374.944 116.376C371.505 114.198 367.721 112.593 363.593 111.905V104.796C363.593 101.815 361.186 99.5217 358.319 99.5217C355.338 99.5217 353.045 101.93 353.045 104.796V111.905C348.917 112.593 345.019 114.198 341.694 116.376L336.764 111.331C334.7 109.267 331.375 109.153 329.311 111.217C327.247 113.28 327.133 116.606 329.196 118.669L334.012 123.6C331.26 127.269 329.311 131.396 328.394 136.097H321.858C318.877 136.097 316.584 138.505 316.584 141.371C316.584 144.352 318.992 146.645 321.858 146.645H328.164C328.852 151.461 330.687 155.933 333.439 159.716L329.311 163.959C327.247 166.022 327.362 169.462 329.426 171.411C330.458 172.443 331.834 172.902 333.095 172.902C334.471 172.902 335.846 172.328 336.878 171.297L340.891 167.169C344.446 169.691 348.688 171.411 353.16 172.214V177.832C353.16 180.813 355.567 183.106 358.434 183.106C361.415 183.106 363.708 180.698 363.708 177.832V172.214C368.18 171.411 372.422 169.691 375.976 167.169L379.989 171.297C381.021 172.328 382.397 172.902 383.773 172.902C385.149 172.902 386.41 172.443 387.442 171.411C389.506 169.347 389.62 166.022 387.556 163.959L383.429 159.716C386.181 155.933 388.015 151.461 388.703 146.645H395.009C397.99 146.645 400.283 144.238 400.283 141.371C400.054 138.505 397.646 136.097 394.78 136.097ZM357.746 155.589C350.064 155.589 343.872 149.397 343.872 141.715C343.872 134.033 350.064 127.842 357.746 127.842C365.428 127.842 371.619 134.033 371.619 141.715C371.619 149.397 365.428 155.589 357.746 155.589Z" fill="#8383DD"/>
<path d="M365.772 141.83C365.772 145.958 362.332 149.397 358.205 149.397C354.077 149.397 350.637 145.958 350.637 141.83C350.637 137.702 354.077 134.263 358.205 134.263C362.332 134.263 365.772 137.588 365.772 141.83Z" stroke="#472A1C" stroke-width="1.0327" stroke-miterlimit="10"/>
<path d="M375.747 141.83C375.747 151.576 367.836 159.372 358.205 159.372C348.459 159.372 340.662 151.461 340.662 141.83C340.662 132.084 348.573 124.287 358.205 124.287C367.836 124.287 375.747 132.084 375.747 141.83Z" stroke="#472A1C" stroke-width="1.0327" stroke-miterlimit="10"/>
<path d="M58.8369 241.925C58.8369 245.479 55.9705 248.345 52.4161 248.345C48.8618 248.345 45.9954 245.479 45.9954 241.925C45.9954 238.37 48.8618 235.504 52.4161 235.504C55.9705 235.504 58.8369 238.37 58.8369 241.925Z" stroke="#2D1A14" stroke-width="1.6142" stroke-miterlimit="10" stroke-linecap="round" stroke-linejoin="round"/>
<path d="M110.547 106.401C110.547 108.809 108.598 110.758 106.19 110.758C103.782 110.758 101.833 108.809 101.833 106.401C101.833 103.993 103.782 102.044 106.19 102.044C108.598 102.159 110.547 104.108 110.547 106.401Z" stroke="#2D1A14" stroke-width="1.6142" stroke-miterlimit="10" stroke-linecap="round" stroke-linejoin="round"/>
<path d="M51.9575 115.459C51.9575 116.606 51.0403 117.637 49.7791 117.637C48.5178 117.637 47.6006 116.72 47.6006 115.459C47.6006 114.198 48.5178 113.281 49.7791 113.281C51.0403 113.281 51.9575 114.312 51.9575 115.459Z" stroke="#2D1A14" stroke-width="1.6142" stroke-miterlimit="10" stroke-linecap="round" stroke-linejoin="round"/>
<path d="M171.2 55.6084C174.746 55.6084 177.621 52.7337 177.621 49.1876C177.621 45.6415 174.746 42.7668 171.2 42.7668C167.654 42.7668 164.779 45.6415 164.779 49.1876C164.779 52.7337 167.654 55.6084 171.2 55.6084Z" stroke="#2D1A14" stroke-width="1.6142" stroke-miterlimit="10" stroke-linecap="round" stroke-linejoin="round"/>
<path d="M143.683 30.7278C144.886 30.7278 145.861 29.7524 145.861 28.5493C145.861 27.3462 144.886 26.3708 143.683 26.3708C142.479 26.3708 141.504 27.3462 141.504 28.5493C141.504 29.7524 142.479 30.7278 143.683 30.7278Z" stroke="#2D1A14" stroke-width="1.6142" stroke-miterlimit="10" stroke-linecap="round" stroke-linejoin="round"/>
<path d="M235.751 386.965C238.348 386.965 240.452 384.86 240.452 382.264C240.452 379.668 238.348 377.563 235.751 377.563C233.155 377.563 231.051 379.668 231.051 382.264C231.051 384.86 233.155 386.965 235.751 386.965Z" stroke="#2D1A14" stroke-width="1.6142" stroke-miterlimit="10" stroke-linecap="round" stroke-linejoin="round"/>
<path d="M269.69 376.646C271.589 376.646 273.129 375.106 273.129 373.206C273.129 371.307 271.589 369.767 269.69 369.767C267.79 369.767 266.25 371.307 266.25 373.206C266.25 375.106 267.79 376.646 269.69 376.646Z" stroke="#2D1A14" stroke-width="1.6142" stroke-miterlimit="10" stroke-linecap="round" stroke-linejoin="round"/>
<path d="M224.057 442C225.956 442 227.496 440.46 227.496 438.56C227.496 436.661 225.956 435.121 224.057 435.121C222.157 435.121 220.617 436.661 220.617 438.56C220.617 440.46 222.157 442 224.057 442Z" stroke="#2D1A14" stroke-width="1.6142" stroke-miterlimit="10" stroke-linecap="round" stroke-linejoin="round"/>
<path d="M104.47 408.52C104.47 410.47 102.98 411.96 101.031 411.96C99.0814 411.96 97.5908 410.47 97.5908 408.52C97.5908 406.571 99.0814 405.081 101.031 405.081C102.98 405.081 104.47 406.571 104.47 408.52Z" stroke="#2D1A14" stroke-width="1.6142" stroke-miterlimit="10" stroke-linecap="round" stroke-linejoin="round"/>
<path d="M407.392 258.321C407.392 260.499 405.672 262.219 403.494 262.219C401.315 262.219 399.595 260.499 399.595 258.321C399.595 256.142 401.315 254.422 403.494 254.422C405.672 254.422 407.392 256.142 407.392 258.321Z" stroke="#2D1A14" stroke-width="1.6142" stroke-miterlimit="10" stroke-linecap="round" stroke-linejoin="round"/>
<path d="M416.908 282.857C416.908 284.577 415.533 285.838 413.927 285.838C412.322 285.838 410.946 284.462 410.946 282.857C410.946 281.252 412.322 279.876 413.927 279.876C415.533 279.876 416.908 281.137 416.908 282.857Z" stroke="#2D1A14" stroke-width="1.6142" stroke-miterlimit="10" stroke-linecap="round" stroke-linejoin="round"/>
<path d="M154.346 225.185C155.992 225.185 157.327 223.85 157.327 222.204C157.327 220.557 155.992 219.223 154.346 219.223C152.699 219.223 151.365 220.557 151.365 222.204C151.365 223.85 152.699 225.185 154.346 225.185Z" stroke="#2D1A14" stroke-width="1.6142" stroke-miterlimit="10" stroke-linecap="round" stroke-linejoin="round"/>
<path d="M434.107 139.193C434.107 142.977 431.011 146.072 427.228 146.072C423.444 146.072 420.348 142.977 420.348 139.193C420.348 135.409 423.444 132.313 427.228 132.313C431.011 132.313 434.107 135.295 434.107 139.193Z" stroke="#2D1A14" stroke-width="1.6142" stroke-miterlimit="10" stroke-linecap="round" stroke-linejoin="round"/>
<path d="M77.8699 72.2334L81.0803 78.1955L87.0424 81.5206L81.0803 84.7309L77.8699 90.8077L74.5449 84.7309L68.5828 81.5206L74.5449 78.1955L77.8699 72.2334Z" fill="#FF9E00"/>
<path d="M116.509 59.8506L118.114 62.717L120.981 64.3222L118.114 65.8127L116.509 68.6791L115.019 65.8127L112.152 64.3222L115.019 62.717L116.509 59.8506Z" fill="#FF9E00"/>
<path d="M201.699 382.493L205.138 388.685L211.33 392.125L205.138 395.564L201.699 401.756L198.373 395.564L192.067 392.125L198.373 388.685L201.699 382.493Z" fill="#FF9E00"/>
<path d="M192.297 427.324L194.361 431.337L198.374 433.401L194.361 435.579L192.297 439.478L190.118 435.579L186.22 433.401L190.118 431.337L192.297 427.324Z" fill="#FF9E00"/>
<path d="M458.185 333.191L461.051 338.465L466.325 341.332L461.051 344.198L458.185 349.587L455.318 344.198L450.044 341.332L455.318 338.465L458.185 333.191Z" fill="#FF9E00"/>
<path d="M481.46 315.419L482.721 317.713L485.014 318.974L482.721 320.235L481.46 322.528L480.199 320.235L477.906 318.974L480.199 317.713L481.46 315.419Z" fill="#FF9E00"/>
<path d="M426.31 191.361L428.259 194.916L431.814 196.75L428.259 198.699L426.31 202.254L424.361 198.699L420.921 196.75L424.361 194.916L426.31 191.361Z" fill="#FF9E00"/>
<path d="M449.585 168.201L451.764 172.214L455.777 174.392L451.764 176.685L449.585 180.698L447.407 176.685L443.279 174.392L447.407 172.214L449.585 168.201Z" fill="#FF9E00"/>
<path d="M329.082 200.534L330.802 203.63L334.012 205.349L330.802 207.069L329.082 210.28L327.362 207.069L324.266 205.349L327.362 203.63L329.082 200.534Z" fill="#FF9E00"/>
<path d="M147.466 147.792L149.071 150.544L151.823 152.034L149.071 153.525L147.466 156.391L145.976 153.525L143.224 152.034L145.976 150.544L147.466 147.792Z" fill="#FF9E00"/>
<path d="M187.94 86.3362L189.889 89.8905L193.443 91.8397L189.889 93.7888L187.94 97.3432L185.991 93.7888L182.436 91.8397L185.991 89.8905L187.94 86.3362Z" fill="#FF9E00"/>
<path d="M194.819 0L196.539 3.21038L199.749 4.93022L196.539 6.65006L194.819 9.74578L193.099 6.65006L190.004 4.93022L193.099 3.21038L194.819 0Z" fill="#FF9E00"/>
<path d="M303.284 40.8176L305.463 44.8306L309.59 47.0091L305.463 49.3022L303.284 53.3152L301.106 49.3022L296.978 47.0091L301.106 44.8306L303.284 40.8176Z" fill="#FF9E00"/>
<path d="M337.681 22.8167L338.942 25.1098L341.235 26.371L338.942 27.6322L337.681 29.9253L336.42 27.6322L334.127 26.371L336.42 25.1098L337.681 22.8167Z" fill="#FF9E00"/>
<path d="M434.909 87.1389L436.629 90.12L439.61 91.8398L436.629 93.445L434.909 96.4261L433.304 93.445L430.323 91.8398L433.304 90.12L434.909 87.1389Z" fill="#FF9E00"/>
<path d="M51.1549 343.969C57.8038 343.969 63.1938 338.579 63.1938 331.93C63.1938 325.281 57.8038 319.891 51.1549 319.891C44.506 319.891 39.116 325.281 39.116 331.93C39.116 338.579 44.506 343.969 51.1549 343.969Z" fill="#E1F5F7"/>
</svg>
