<svg width="145" height="93" viewBox="0 0 145 93" fill="none" xmlns="http://www.w3.org/2000/svg">
<circle cx="46.2372" cy="46.2373" r="44.2057" transform="rotate(-2.69754 46.2372 46.2373)" fill="#FFCF03"/>
<path d="M72.472 62.4074C69.9213 62.4074 67.7249 62.0327 65.8828 61.2832C64.0761 60.5338 62.6767 59.4564 61.6848 58.0512C60.6929 56.646 60.1792 54.5177 60.1438 52.5817H64.9263C64.9263 54.2992 65.5817 56.1151 66.8924 57.1144C68.2386 58.1137 70.0985 58.6133 72.472 58.6133C74.7038 58.6133 76.4397 58.1293 77.6796 57.1612C78.9549 56.1932 79.5926 54.8504 79.5926 53.1329C79.5926 51.7589 79.1675 50.5567 78.3172 49.5262C77.5025 48.4957 76.3157 47.7775 74.7569 47.3715L69.4962 45.9195C66.8393 45.2012 64.7846 43.999 63.3321 42.3127C61.9151 40.6264 61.2066 38.6435 61.2066 36.3639C61.2066 34.5215 61.6671 32.9289 62.5882 31.5862C63.5447 30.2122 64.8731 29.1505 66.5736 28.401C68.274 27.6203 70.2756 27.23 72.5783 27.23C75.9791 27.23 78.7069 28.0731 80.7616 29.7594C82.8163 31.4144 83.8614 34.8899 83.8968 37.6692H79.1143C79.1143 35.9829 78.5298 33.413 77.3607 32.4761C76.2271 31.5081 74.6152 31.0241 72.5251 31.0241C70.4704 31.0241 68.8586 31.4613 67.6895 32.3356C66.5559 33.21 65.9891 34.4278 65.9891 35.9892C65.9891 37.3944 66.4142 38.6123 67.2644 39.6428C68.1146 40.6733 69.3368 41.4071 70.931 41.8443L76.2448 43.3432C78.8309 44.0614 80.8325 45.2793 82.2495 46.9968C83.6665 48.7143 84.3751 50.7284 84.3751 53.0392C84.3751 54.9129 83.8791 56.5523 82.8872 57.9575C81.8953 59.3628 80.4959 60.4557 78.6892 61.2364C76.9179 62.0171 74.8455 62.4074 72.472 62.4074Z" fill="#124B90"/>
<path d="M106.227 62.4074C103.891 62.4074 101.856 62.0165 100.122 61.2348C98.4228 60.4531 97.0956 59.3274 96.1401 57.8578C95.2199 56.3569 94.7598 54.5902 94.7598 52.5577V37.0797C94.7598 35.0159 95.2199 33.2492 96.1401 31.7796C97.0956 30.31 98.4228 29.1843 100.122 28.4026C101.856 27.6208 103.891 27.23 106.227 27.23C108.563 27.23 110.58 27.6365 112.279 28.4495C113.978 29.2312 115.287 30.3569 116.207 31.8265C117.128 33.2961 117.588 35.6764 117.588 37.7088H112.81C112.81 35.7702 112.226 33.6557 111.058 32.6239C109.925 31.5607 108.315 31.0291 106.227 31.0291C104.139 31.0291 102.493 31.5451 101.29 32.5769C100.122 33.6088 99.5377 35.0941 99.5377 37.0328V52.5577C99.5377 54.4964 100.122 55.9973 101.29 57.0604C102.493 58.0923 104.139 58.6082 106.227 58.6082C108.315 58.6082 109.925 58.0923 111.058 57.0604C112.226 55.9973 112.81 54.4964 112.81 52.5577H117.588C117.588 54.5589 117.128 56.31 116.207 57.8109C115.287 59.2805 113.978 60.4218 112.279 61.2348C110.58 62.0165 108.563 62.4074 106.227 62.4074Z" fill="#124B90"/>
<path d="M121.985 62.4075V58.6452H130.778V32.6763H121.985V28.9141H145V32.6763H136.207V58.6452H145V62.4075H121.985Z" fill="#124B90"/>
<path d="M64.4038 75.5842C64.7118 75.385 65.0324 75.2349 65.3657 75.1337C65.7013 75.0363 65.9969 74.9984 66.2527 75.0202L66.3743 75.8929C66.1352 75.8812 65.8795 75.9088 65.6072 75.9757C65.3335 76.0487 65.0812 76.1599 64.8502 76.3092C64.6742 76.423 64.5435 76.531 64.458 76.633C64.3712 76.7411 64.3219 76.8432 64.3099 76.9393C64.298 77.0354 64.3175 77.1242 64.3685 77.2056C64.4334 77.3092 64.5247 77.3645 64.6425 77.3716C64.7625 77.3823 64.9001 77.3635 65.0553 77.3151C65.2128 77.2705 65.3826 77.2127 65.5648 77.1417C65.7456 77.0767 65.9329 77.018 66.1266 76.9655C66.3167 76.9153 66.5033 76.8883 66.6862 76.8843C66.8692 76.8804 67.0446 76.9178 67.2123 76.9964C67.3764 77.0775 67.5233 77.2216 67.6531 77.4288C67.7922 77.6508 67.8598 77.8904 67.8561 78.1476C67.851 78.4108 67.7629 78.6731 67.5918 78.9345C67.4193 79.202 67.1516 79.4531 66.7887 79.6878C66.5467 79.8443 66.2898 79.9688 66.0181 80.0613C65.7487 80.1576 65.4883 80.2064 65.2368 80.2079L65.0842 79.3474C65.3287 79.3348 65.5559 79.2945 65.7656 79.2264C65.9777 79.1621 66.1699 79.0742 66.3422 78.9627C66.5146 78.8513 66.643 78.7397 66.7275 78.6279C66.8119 78.516 66.8572 78.4114 66.8631 78.314C66.8714 78.2203 66.8489 78.1309 66.7955 78.0458C66.733 77.9459 66.6417 77.8905 66.5216 77.8798C66.4039 77.8727 66.2674 77.8934 66.1123 77.9417C65.9571 77.9901 65.7891 78.0467 65.6083 78.1117C65.4238 78.179 65.2377 78.2396 65.0499 78.2934C64.8584 78.3496 64.6712 78.3797 64.4883 78.3837C64.3053 78.3876 64.1318 78.3491 63.9677 78.268C63.7999 78.1893 63.6523 78.0482 63.5249 77.8447C63.3881 77.6264 63.3235 77.3875 63.3309 77.128C63.3383 76.8684 63.4282 76.6049 63.6007 76.3374C63.7695 76.0723 64.0372 75.8212 64.4038 75.5842Z" fill="#124B90"/>
<path d="M60.419 77.8639C60.6844 77.7409 60.9453 77.6826 61.2017 77.6889C61.4542 77.697 61.6852 77.78 61.8948 77.9379C62.1062 78.0998 62.286 78.3461 62.4343 78.6767L63.2491 80.4932L62.3221 80.9227L61.569 79.2436C61.4492 78.9767 61.3053 78.8052 61.1372 78.7291C60.967 78.6589 60.7788 78.6714 60.5728 78.7669C60.4302 78.833 60.3168 78.9216 60.2327 79.0327C60.1504 79.1478 60.1061 79.2838 60.0999 79.4407C60.0955 79.6015 60.1371 79.7795 60.2246 79.9747L60.9376 81.5641L60.0106 81.9936L58.5686 78.7788L59.4481 78.3714L59.8447 79.2558L59.569 79.0732C59.5759 78.8005 59.6585 78.5578 59.8166 78.345C59.9726 78.138 60.1734 77.9776 60.419 77.8639Z" fill="#124B90"/>
<path d="M55.9917 79.6194C56.2793 79.5296 56.5665 79.4765 56.8535 79.4601C57.1375 79.4492 57.3724 79.4719 57.5581 79.5282L57.4452 80.3318C57.262 80.2839 57.0567 80.2611 56.8294 80.2634C56.5992 80.2713 56.3819 80.3071 56.1777 80.3709C55.9527 80.4412 55.8025 80.5178 55.7273 80.6007C55.6478 80.685 55.6226 80.7752 55.6517 80.8713C55.6757 80.9507 55.7308 80.9975 55.8172 81.0117C55.9007 81.0314 56.006 81.0328 56.1332 81.016C56.2604 80.9991 56.4 80.9784 56.5522 80.9537C56.7002 80.9304 56.8522 80.9126 57.0082 80.9005C57.1654 80.8926 57.3152 80.9053 57.4575 80.9386C57.5998 80.9719 57.7268 81.0374 57.8385 81.1352C57.9459 81.2343 58.0287 81.38 58.0868 81.5722C58.1512 81.7854 58.1476 81.9923 58.076 82.193C58.0002 82.3951 57.8595 82.5785 57.6539 82.7433C57.4496 82.9123 57.1849 83.0476 56.8598 83.1491C56.6306 83.2207 56.3896 83.2685 56.1369 83.2925C55.8842 83.3165 55.6642 83.3052 55.4768 83.2585L55.5916 82.4612C55.7831 82.5065 55.9673 82.5199 56.1441 82.5013C56.318 82.4881 56.4821 82.4575 56.6363 82.4093C56.853 82.3417 57.0025 82.263 57.0849 82.1732C57.1672 82.0835 57.1945 81.9926 57.1667 81.9007C57.1415 81.8171 57.0871 81.7655 57.0036 81.7458C56.916 81.7274 56.8079 81.7246 56.6795 81.7372C56.5511 81.7499 56.4128 81.7679 56.2648 81.7913C56.1139 81.8201 55.9598 81.8385 55.8026 81.8464C55.6454 81.8543 55.4977 81.841 55.3595 81.8064C55.2185 81.7773 55.0921 81.7138 54.9805 81.616C54.8701 81.5224 54.7859 81.3795 54.7278 81.1873C54.6647 80.9783 54.671 80.7728 54.7468 80.5707C54.8238 80.3729 54.9672 80.1909 55.177 80.0248C55.3826 79.8599 55.6542 79.7248 55.9917 79.6194Z" fill="#124B90"/>
<path d="M51.8399 80.6657C52.2468 80.5851 52.5834 80.6252 52.8498 80.7861C53.117 80.9512 53.2901 81.2396 53.3689 81.6513L53.9503 84.6872L52.9482 84.8858L52.3692 81.8627C52.3413 81.7169 52.281 81.6109 52.1883 81.5447C52.0964 81.4828 51.9841 81.465 51.8513 81.4913C51.6929 81.5227 51.5662 81.5923 51.4712 81.7001L51.0659 81.0461C51.1548 80.9528 51.2683 80.8724 51.4065 80.805C51.5413 80.7427 51.6857 80.6963 51.8399 80.6657ZM54.1743 82.9671L54.3221 83.739L51.926 84.2137L51.7781 83.4419L54.1743 82.9671Z" fill="#124B90"/>
<path d="M47.8038 81.2254L47.8568 81.911L47.9338 82.0559L48.0288 83.2834C48.0456 83.5011 48.1262 83.6654 48.2706 83.7765C48.4106 83.8878 48.6176 83.9325 48.8918 83.9105C49.079 83.8954 49.2616 83.8501 49.4396 83.7744C49.6137 83.7035 49.7599 83.6129 49.8784 83.5026L50.299 84.185C50.118 84.3353 49.8954 84.4583 49.6313 84.554C49.3672 84.6497 49.0959 84.7087 48.8174 84.7311C48.2821 84.7742 47.8567 84.6814 47.5413 84.4527C47.2258 84.224 47.0473 83.842 47.0059 83.3065L46.8507 81.302L47.8038 81.2254ZM48.8703 81.0871C49.1445 81.065 49.383 81.0918 49.5859 81.1675C49.7892 81.2475 49.9493 81.3638 50.0662 81.5165C50.1831 81.6692 50.2493 81.8456 50.2648 82.0459C50.281 82.2548 50.2451 82.4416 50.1571 82.6064C50.0648 82.7715 49.911 82.9065 49.6958 83.0114C49.481 83.1207 49.1951 83.1897 48.8382 83.2183L47.9047 83.2934L47.8588 82.6992L48.6813 82.6331C48.9206 82.6138 49.083 82.5614 49.1683 82.4757C49.2493 82.3903 49.2852 82.2889 49.2761 82.1713C49.266 82.0407 49.2079 81.9403 49.1017 81.87C48.9915 81.8044 48.8472 81.7788 48.6688 81.7931C48.4991 81.8068 48.3498 81.8582 48.2209 81.9474C48.0924 82.0409 48.0038 82.1685 47.955 82.3301L47.7619 81.8726C47.8184 81.6403 47.94 81.4575 48.1267 81.3242C48.3135 81.191 48.5613 81.1119 48.8703 81.0871Z" fill="#124B90"/>
<path d="M45.363 81.2981L45.2828 84.8206L44.2614 84.7971L44.3417 81.2746L45.363 81.2981ZM44.7609 85.2999C44.9486 85.3042 45.1001 85.3623 45.2155 85.4741C45.3308 85.5859 45.3867 85.7226 45.383 85.8841C45.3793 86.0456 45.3173 86.1795 45.197 86.2859C45.0766 86.3924 44.9226 86.4434 44.7349 86.4391C44.5473 86.4348 44.3957 86.3789 44.2802 86.2714C44.1646 86.1683 44.1087 86.036 44.1124 85.8745C44.1163 85.7043 44.1784 85.5638 44.2989 85.453C44.4148 85.3465 44.5688 85.2955 44.7609 85.2999Z" fill="#124B90"/>
<path d="M40.2723 84.4968C39.9953 84.4598 39.756 84.3705 39.5543 84.229C39.3477 84.0912 39.1966 83.8992 39.1009 83.653C39.0047 83.411 38.9797 83.1126 39.0259 82.7576L39.2862 80.7573L40.2989 80.8928L40.0588 82.7372C40.0222 83.0186 40.0579 83.2348 40.1659 83.3858C40.2696 83.5362 40.434 83.6265 40.659 83.6566C40.8191 83.678 40.9686 83.6628 41.1075 83.6109C41.2414 83.5627 41.3542 83.4743 41.4458 83.3456C41.5331 83.2163 41.5908 83.0434 41.6189 82.8269L41.8438 81.0995L42.8564 81.2349L42.4017 84.7288L41.4345 84.5994L41.5604 83.6318L41.7041 83.9484C41.5482 84.1654 41.3453 84.321 41.0952 84.4153C40.8452 84.5096 40.5709 84.5368 40.2723 84.4968Z" fill="#124B90"/>
<path d="M35.7777 79.8683L35.5976 80.532L35.6212 80.695L35.2985 81.8831C35.2413 82.0938 35.2619 82.2764 35.3602 82.4308C35.4543 82.5841 35.6338 82.6977 35.8987 82.7718C36.0795 82.8224 36.2662 82.8429 36.4588 82.8333C36.6461 82.8267 36.8138 82.7921 36.9621 82.7292L37.1282 83.5169C36.9077 83.5958 36.6574 83.6346 36.3773 83.6333C36.0972 83.632 35.8226 83.5937 35.5535 83.5185C35.0363 83.3738 34.6679 83.1393 34.4484 82.815C34.2288 82.4906 34.1894 82.0693 34.3301 81.5511L34.8569 79.6108L35.7777 79.8683ZM36.8258 80.1071C37.0907 80.1812 37.3057 80.2889 37.4709 80.4303C37.635 80.5759 37.7463 80.7408 37.8049 80.9249C37.8634 81.1091 37.8664 81.298 37.8138 81.4918C37.7589 81.6941 37.6625 81.8575 37.5246 81.9822C37.3825 82.1056 37.1928 82.1795 36.9555 82.2038C36.717 82.2323 36.4254 82.1983 36.0806 82.1019L35.1787 81.8496L35.3349 81.2745L36.1295 81.4968C36.3608 81.5614 36.5309 81.5682 36.6398 81.5171C36.7444 81.4648 36.8122 81.3817 36.8431 81.2679C36.8774 81.1415 36.8565 81.0269 36.7804 80.924C36.699 80.8242 36.572 80.7501 36.3997 80.7019C36.2357 80.656 36.0782 80.6528 35.9273 80.6922C35.7752 80.7358 35.6491 80.8252 35.5491 80.9604L35.5213 80.463C35.6522 80.2639 35.8278 80.1339 36.0479 80.0731C36.268 80.0123 36.5273 80.0236 36.8258 80.1071Z" fill="#124B90"/>
<path d="M31.5781 78.2511C31.8622 78.3753 32.0806 78.5423 32.2335 78.752C32.3864 78.9618 32.4648 79.2129 32.4688 79.5053C32.4711 79.8018 32.3922 80.1389 32.2319 80.5167C32.07 80.8986 31.881 81.1876 31.665 81.3838C31.445 81.5783 31.2074 81.6912 30.9523 81.7226C30.6971 81.754 30.4335 81.7102 30.1615 81.5912C29.8575 81.4583 29.6145 81.271 29.4324 81.0294C29.2463 80.7861 29.1361 80.5092 29.1018 80.1988C29.0635 79.8866 29.1168 79.5597 29.2617 79.218C29.4049 78.8804 29.6014 78.6185 29.8511 78.4322C30.0968 78.2442 30.3715 78.1332 30.6751 78.0993C30.9731 78.0676 31.2741 78.1182 31.5781 78.2511ZM33.4658 79.1336L31.5685 83.6073L30.6324 83.198L31.4328 81.3109L31.8994 80.3785L32.2905 79.4059L32.5718 78.7427L33.4658 79.1336ZM31.4129 79.0937C31.2568 79.0254 31.1035 79.0013 30.9528 79.0211C30.7981 79.0393 30.6566 79.0989 30.5284 79.2001C30.3944 79.3035 30.2882 79.4477 30.2098 79.6326C30.1297 79.8215 30.0995 79.9989 30.1192 80.1647C30.135 80.3289 30.1895 80.4742 30.2828 80.6008C30.3722 80.7256 30.4948 80.8221 30.6508 80.8903C30.8069 80.9586 30.9622 80.9836 31.1169 80.9655C31.2716 80.9473 31.4131 80.8877 31.5413 80.7865C31.6696 80.6854 31.7738 80.5403 31.8539 80.3514C31.9323 80.1665 31.9645 79.99 31.9505 79.8219C31.9347 79.6578 31.8802 79.5124 31.7869 79.3858C31.6935 79.2593 31.5689 79.1619 31.4129 79.0937Z" fill="#124B90"/>
<path d="M28.8717 76.9584L26.5065 81.2032L25.6207 80.6942L27.9859 76.4493L28.8717 76.9584Z" fill="#124B90"/>
<path d="M25.3139 74.619C25.6396 74.8541 25.8813 75.1255 26.0389 75.4331C26.1931 75.7382 26.2598 76.0502 26.2392 76.3691C26.216 76.6916 26.1043 76.9959 25.904 77.282C25.7012 77.5718 25.4568 77.7803 25.1706 77.9075C24.8784 78.0358 24.5734 78.0794 24.2557 78.0385C23.9355 78.0012 23.6302 77.8778 23.3399 77.6683C23.0603 77.4664 22.8515 77.2241 22.7136 76.9415C22.5696 76.6599 22.511 76.3592 22.5377 76.0393C22.5619 75.7229 22.6829 75.4092 22.9007 75.0979C22.9232 75.0658 22.9513 75.0295 22.9849 74.9891C23.0159 74.9523 23.0458 74.9173 23.0743 74.8841L25.3948 76.5591L25.0532 77.0474L23.1681 75.6867L23.5881 75.7718C23.4829 75.922 23.4217 76.0743 23.4042 76.2287C23.3868 76.383 23.4099 76.5289 23.4736 76.6664C23.5347 76.8074 23.6361 76.929 23.7777 77.0313C23.9193 77.1335 24.0675 77.192 24.2223 77.2068C24.3711 77.2227 24.5156 77.1951 24.6559 77.1241C24.7936 77.0566 24.9163 76.946 25.024 76.7922L25.1141 76.6634C25.2242 76.506 25.2882 76.3422 25.3061 76.172C25.3179 76.0029 25.2844 75.8414 25.2055 75.6876C25.1206 75.5348 24.9932 75.397 24.8233 75.2744C24.6711 75.1645 24.5221 75.0919 24.3762 75.0566C24.2269 75.0188 24.0719 75.0119 23.9112 75.0359L23.8084 74.2348C24.0445 74.1792 24.2905 74.1817 24.5463 74.2426C24.7996 74.307 25.0555 74.4324 25.3139 74.619Z" fill="#124B90"/>
<path d="M20.2619 70.0909C20.4877 70.34 20.6487 70.5988 20.7449 70.8675C20.8412 71.1361 20.8721 71.3912 20.8377 71.6326C20.8032 71.8741 20.6967 72.0784 20.5182 72.2454C20.3524 72.4005 20.1704 72.502 19.9723 72.55C19.7709 72.6008 19.5396 72.5991 19.2782 72.5448C19.0136 72.4934 18.7126 72.3954 18.3752 72.2508C18.1281 72.1472 17.9257 72.0735 17.7681 72.0296C17.6105 71.9858 17.484 71.9697 17.3885 71.9813C17.2898 71.996 17.2101 72.0316 17.1496 72.0883C17.0667 72.1659 17.0261 72.2576 17.0279 72.3636C17.0267 72.4663 17.076 72.5726 17.1757 72.6826C17.2813 72.799 17.3921 72.8628 17.5081 72.8737C17.6242 72.8847 17.7268 72.8485 17.8161 72.765C17.8639 72.7202 17.9029 72.6658 17.9331 72.6016C17.9602 72.5404 17.9791 72.454 17.9898 72.3424C17.9973 72.2337 18.0019 72.086 18.0034 71.8992L18.0157 68.5786L18.863 68.548L18.8457 72.2141C18.8463 72.4227 18.8328 72.6028 18.8051 72.7542C18.7775 72.9057 18.7352 73.0378 18.6785 73.1507C18.6188 73.2604 18.5427 73.3585 18.4503 73.445C18.2877 73.5971 18.1046 73.6877 17.9011 73.7167C17.6976 73.7457 17.4905 73.7122 17.2799 73.6164C17.0661 73.5235 16.8624 73.3704 16.6688 73.1569C16.4899 72.9596 16.3678 72.7599 16.3026 72.558C16.2312 72.3557 16.2162 72.1605 16.2577 71.9722C16.2962 71.7808 16.3952 71.6104 16.5546 71.4613C16.6948 71.33 16.8562 71.2448 17.0387 71.2056C17.218 71.1694 17.4275 71.1795 17.6674 71.2361C17.9043 71.2894 18.1853 71.3882 18.5105 71.5323C18.7334 71.6287 18.9239 71.6926 19.082 71.724C19.234 71.7551 19.3641 71.7589 19.4724 71.7353C19.5806 71.7118 19.6778 71.6597 19.7639 71.5792C19.8436 71.5046 19.8933 71.4132 19.9131 71.305C19.9299 71.1936 19.9148 71.0762 19.8678 70.9529C19.8207 70.8295 19.7415 70.7063 19.6301 70.5834C19.4512 70.3861 19.2423 70.2467 19.0035 70.1653C18.7615 70.0868 18.4999 70.0745 18.2187 70.1284C17.9314 70.182 17.6367 70.3053 17.3344 70.4984L16.9711 69.7174C17.3579 69.4811 17.75 69.3384 18.1474 69.2893C18.5449 69.2403 18.9248 69.2824 19.2872 69.4156C19.6496 69.5488 19.9745 69.7739 20.2619 70.0909Z" fill="#124B90"/>
<path d="M15.3545 63.3358C15.5301 63.6428 15.6449 63.9578 15.6988 64.2808C15.7468 64.6022 15.734 64.914 15.6603 65.2161C15.5866 65.5181 15.4572 65.7974 15.2719 66.0538C15.0844 66.3064 14.8422 66.5204 14.5452 66.6958C14.2482 66.8711 13.9453 66.979 13.6365 67.0194C13.3255 67.056 13.0226 67.032 12.7279 66.9475C12.4309 66.8592 12.1588 66.7131 11.9116 66.5093C11.6605 66.3077 11.4461 66.0516 11.2684 65.7408C11.0712 65.3959 10.9536 65.0496 10.9157 64.7019C10.8719 64.3526 10.9104 64.0155 11.0314 63.6906L11.9109 63.9622C11.8348 64.1896 11.8068 64.4089 11.827 64.6201C11.8434 64.8335 11.9079 65.0387 12.0206 65.2358C12.1268 65.4215 12.2544 65.5743 12.4034 65.6942C12.5524 65.8141 12.7159 65.8975 12.8937 65.9447C13.0715 65.9918 13.2559 66.002 13.4469 65.9754C13.6357 65.9451 13.8241 65.8744 14.012 65.7634C14.2 65.6524 14.3537 65.5211 14.4732 65.3694C14.5905 65.214 14.673 65.0461 14.7208 64.8658C14.7686 64.6855 14.7781 64.4999 14.7494 64.309C14.7207 64.1181 14.6533 63.9298 14.5471 63.7441C14.4344 63.547 14.2927 63.3873 14.1222 63.2649C13.9479 63.1448 13.7427 63.0631 13.5068 63.0199L13.7101 62.109C14.0478 62.1631 14.357 62.2948 14.6377 62.5043C14.9162 62.7099 15.1552 62.9871 15.3545 63.3358Z" fill="#124B90"/>
<path d="M13.8708 60.5667L10.6538 62.0036L10.2483 61.0659L13.4653 59.629L13.8708 60.5667ZM10.0026 61.735C10.0771 61.9073 10.0879 62.0699 10.035 62.2226C9.98214 62.3753 9.88196 62.4846 9.73446 62.5505C9.58696 62.6163 9.43999 62.6174 9.29354 62.5538C9.14709 62.4901 9.03661 62.3721 8.9621 62.1997C8.88759 62.0274 8.87478 61.8658 8.92367 61.7149C8.96857 61.5657 9.06477 61.4582 9.21227 61.3923C9.36774 61.3229 9.52069 61.3191 9.67112 61.381C9.81584 61.4407 9.92632 61.5587 10.0026 61.735Z" fill="#124B90"/>
<path d="M12.9017 58.2134L9.57406 59.3713L9.26263 58.4466L10.2028 58.1194L9.97453 58.3444C9.70605 58.3269 9.47509 58.2293 9.28166 58.0516C9.0841 57.8754 8.93237 57.63 8.82647 57.3156L9.71714 57.0056C9.72695 57.0484 9.73743 57.0864 9.74858 57.1195C9.7556 57.154 9.76539 57.1899 9.77793 57.2272C9.86711 57.492 10.0158 57.6806 10.2242 57.793C10.4269 57.9027 10.6871 57.9023 11.0046 57.7918L12.5756 57.2451L12.9017 58.2134Z" fill="#124B90"/>
<path d="M11.553 53.302C11.6342 53.6731 11.6319 54.0205 11.5463 54.3443C11.4565 54.669 11.2956 54.9448 11.0637 55.1719C10.8308 55.3946 10.5441 55.5445 10.2034 55.6216C9.85848 55.6996 9.53627 55.6874 9.23681 55.5851C8.93215 55.4794 8.67358 55.2984 8.46111 55.0421C8.24437 54.7867 8.09543 54.4735 8.01428 54.1024C7.93499 53.7399 7.94261 53.4069 8.03715 53.1036C8.12743 52.8011 8.29911 52.5542 8.55218 52.3626L9.13668 53.0429C8.99444 53.169 8.89993 53.309 8.85313 53.4629C8.80539 53.6124 8.79878 53.7661 8.83329 53.9239C8.8706 54.0945 8.94251 54.2394 9.04901 54.3585C9.15551 54.4777 9.28789 54.5619 9.44614 54.6111C9.60346 54.6561 9.78219 54.656 9.98234 54.6107C10.1825 54.5655 10.3444 54.4885 10.4682 54.38C10.591 54.2672 10.6758 54.1338 10.7226 53.98C10.7694 53.8262 10.7741 53.664 10.7368 53.4934C10.7023 53.3356 10.6344 53.1987 10.5331 53.0829C10.4266 52.9637 10.2805 52.8782 10.0948 52.8261L10.3471 51.9567C10.6519 52.022 10.9103 52.1717 11.1224 52.4057C11.3302 52.6407 11.4737 52.9395 11.553 53.302Z" fill="#124B90"/>
<path d="M10.9149 49.1314C10.9389 49.4229 10.9039 49.6888 10.8098 49.9291C10.7154 50.1651 10.5581 50.356 10.3379 50.5019C10.1134 50.6482 9.82062 50.7368 9.45956 50.7677L7.47592 50.9375L7.39199 49.9193L9.22555 49.7624C9.51701 49.7374 9.72731 49.6581 9.85647 49.5243C9.98093 49.3866 10.0338 49.2046 10.0152 48.9783C10.0023 48.8217 9.95816 48.6853 9.88286 48.569C9.80322 48.4531 9.69092 48.3663 9.54598 48.3086C9.39669 48.2513 9.21547 48.2318 9.00231 48.25L7.26663 48.3986L7.18269 47.3804L10.6932 47.0799L10.7728 48.0459L9.80712 48.1285L10.0732 47.9283C10.3265 48.0249 10.5257 48.1831 10.6709 48.403C10.8113 48.6188 10.8927 48.8616 10.9149 49.1314Z" fill="#124B90"/>
<path d="M10.7046 45.4836L5.84668 45.3639L5.87158 44.3426L10.7295 44.4622L10.7046 45.4836Z" fill="#124B90"/>
<path d="M11.0484 40.7996L10.3663 40.7119L10.2088 40.7577L8.98765 40.6007C8.77113 40.5729 8.59385 40.6183 8.4558 40.7371C8.3183 40.8514 8.23248 41.0451 8.19834 41.318C8.17504 41.5043 8.18233 41.6923 8.2202 41.8821C8.25428 42.0669 8.31326 42.2286 8.39715 42.367L7.64362 42.6399C7.53322 42.432 7.458 42.1891 7.41798 41.911C7.37796 41.633 7.37529 41.3553 7.40996 41.078C7.47661 40.5452 7.65393 40.1476 7.94194 39.8853C8.22994 39.623 8.64026 39.526 9.1729 39.5945L11.167 39.8508L11.0484 40.7996ZM10.967 41.872C10.9329 42.1449 10.8582 42.373 10.7429 42.5563C10.6232 42.739 10.4768 42.872 10.3035 42.9554C10.1303 43.0388 9.94411 43.0677 9.74491 43.0421C9.53705 43.0154 9.36141 42.9422 9.21798 42.8225C9.07509 42.6985 8.97416 42.5204 8.91518 42.2884C8.85188 42.0557 8.84244 41.7618 8.88687 41.4065L9.00309 40.4773L9.59419 40.5532L9.49178 41.372C9.46198 41.6103 9.48036 41.78 9.54693 41.8809C9.61404 41.9776 9.70606 42.0335 9.82298 42.0485C9.95289 42.0652 10.063 42.0287 10.1535 41.9391C10.2401 41.8446 10.2945 41.7085 10.3167 41.5309C10.3378 41.3619 10.3178 41.2053 10.2567 41.061C10.1912 40.9161 10.0843 40.8033 9.936 40.7226L10.4232 40.6268C10.6392 40.7294 10.7934 40.8857 10.8859 41.0957C10.9785 41.3056 11.0055 41.5644 10.967 41.872Z" fill="#124B90"/>
<path d="M11.4637 38.3391L8.04403 37.4906L8.27257 36.542L9.23872 36.7817L8.92684 36.846C8.70984 36.6842 8.56699 36.4756 8.4983 36.2201C8.42537 35.9636 8.42776 35.6741 8.50547 35.3515L9.42077 35.5786C9.40631 35.62 9.39499 35.6577 9.38681 35.6916C9.37439 35.7245 9.36358 35.7601 9.35438 35.7983C9.28894 36.0699 9.31416 36.3101 9.43005 36.5188C9.54272 36.7222 9.7622 36.8643 10.0885 36.9453L11.703 37.3458L11.4637 38.3391Z" fill="#124B90"/>
<path d="M13.1349 32.7316L8.90818 30.9565L9.30845 29.974L13.5351 31.7491L13.1349 32.7316Z" fill="#124B90"/>
<path d="M11.9918 26.7367C12.1247 26.4909 12.2925 26.2996 12.4955 26.1628C12.6967 26.02 12.9284 25.9492 13.1908 25.9505C13.4493 25.9496 13.7349 26.0362 14.0476 26.2105L15.8096 27.1923L15.324 28.0911L13.6993 27.1858C13.4514 27.0477 13.2382 27.0014 13.0598 27.0469C12.8834 27.0886 12.7413 27.2093 12.6334 27.409C12.5566 27.5512 12.5176 27.6968 12.5163 27.8461C12.5134 27.9893 12.5553 28.1276 12.642 28.2609C12.7309 28.3904 12.8706 28.5083 13.0613 28.6145L14.5831 29.4624L14.0974 30.3613L11.0196 28.6463L11.4835 27.7878L12.3359 28.2628L11.9913 28.2806C11.8455 28.0545 11.7733 27.8069 11.7748 27.5378C11.7763 27.2688 11.8486 27.0017 11.9918 26.7367Z" fill="#124B90"/>
<path d="M16.6504 25.9157L13.7776 23.8758L14.3569 23.0343L17.2297 25.0742L16.6504 25.9157ZM13.6668 23.1707C13.5603 23.3253 13.4292 23.4196 13.2733 23.4535C13.1175 23.4874 12.9737 23.4576 12.842 23.3641C12.7103 23.2706 12.6334 23.1437 12.6112 22.9834C12.5891 22.8231 12.6312 22.6656 12.7377 22.511C12.8441 22.3563 12.9735 22.2608 13.1257 22.2243C13.2745 22.1854 13.4147 22.2127 13.5464 22.3062C13.6852 22.4048 13.7675 22.5355 13.7932 22.6983C13.8178 22.855 13.7757 23.0125 13.6668 23.1707Z" fill="#124B90"/>
<path d="M19.0705 22.7595C18.8076 23.0803 18.5227 23.2625 18.216 23.3061C17.906 23.3469 17.591 23.2319 17.2709 22.9613L14.9109 20.965L15.5586 20.1749L17.9087 22.1627C18.022 22.2586 18.1353 22.3029 18.2484 22.2957C18.3582 22.2857 18.4561 22.2284 18.5419 22.1237C18.6443 21.9988 18.6981 21.8642 18.7034 21.72L19.4278 21.9725C19.4181 22.1015 19.3811 22.2361 19.317 22.3763C19.2524 22.5102 19.1702 22.638 19.0705 22.7595ZM15.8213 22.4469L15.2213 21.9394L16.77 20.0503L17.37 20.5578L15.8213 22.4469Z" fill="#124B90"/>
<path d="M20.3261 21.2516L17.8373 18.7575L18.5491 18.0246L21.0378 20.5187L20.3261 21.2516ZM17.8463 18.0434C17.7155 18.178 17.5705 18.249 17.4113 18.2563C17.252 18.2636 17.1154 18.2101 17.0013 18.0958C16.8872 17.9814 16.8326 17.8433 16.8377 17.6815C16.8427 17.5197 16.9106 17.3714 17.0414 17.2367C17.1722 17.102 17.3156 17.0295 17.4718 17.0191C17.6248 17.0056 17.7584 17.0561 17.8725 17.1704C17.9928 17.2909 18.052 17.4337 18.05 17.5986C18.048 17.7573 17.9801 17.9055 17.8463 18.0434Z" fill="#124B90"/>
<path d="M23.7465 18.052L23.3127 17.5185L23.1675 17.4438L22.3906 16.4886C22.2529 16.3192 22.0936 16.2306 21.9128 16.2228C21.7353 16.2122 21.5413 16.2953 21.3306 16.4721C21.1868 16.5928 21.064 16.7358 20.9621 16.9012C20.8608 17.0603 20.7934 17.2195 20.7597 17.3788L20.0284 17.0608C20.0902 16.8323 20.2013 16.6022 20.3618 16.3706C20.5223 16.139 20.7095 15.9333 20.9235 15.7537C21.3349 15.4084 21.7341 15.2386 22.1213 15.2441C22.5084 15.2497 22.8714 15.4608 23.2103 15.8774L24.4789 17.4372L23.7465 18.052ZM22.957 18.7832C22.7463 18.96 22.5368 19.076 22.3285 19.1312C22.1174 19.183 21.9208 19.1799 21.7386 19.122C21.5564 19.064 21.4019 18.9572 21.2752 18.8013C21.143 18.6388 21.0658 18.4642 21.0435 18.2777C21.0246 18.0884 21.0728 17.8883 21.1883 17.6774C21.301 17.4631 21.4944 17.2409 21.7686 17.0107L22.4859 16.4086L22.8619 16.8709L22.2299 17.4015C22.046 17.5558 21.9437 17.693 21.9231 17.8129C21.9058 17.93 21.9343 18.0343 22.0087 18.1258C22.0914 18.2274 22.1959 18.2764 22.3224 18.2728C22.4495 18.263 22.5816 18.2006 22.7187 18.0855C22.8491 17.976 22.9414 17.8473 22.9955 17.6993C23.0468 17.5479 23.0463 17.3916 22.9939 17.2304L23.4118 17.4951C23.4982 17.719 23.5034 17.9398 23.4273 18.1576C23.3512 18.3753 23.1944 18.5839 22.957 18.7832Z" fill="#124B90"/>
<path d="M26.9248 15.7987C26.5789 16.0275 26.2529 16.1174 25.9468 16.0686C25.6384 16.0161 25.3712 15.8133 25.1451 15.4604L23.478 12.8574L24.3302 12.2939L25.9903 14.8859C26.0703 15.0109 26.1655 15.0866 26.2758 15.1131C26.3837 15.136 26.4942 15.1101 26.607 15.0354C26.7418 14.9463 26.833 14.8337 26.8806 14.6976L27.4985 15.1525C27.4512 15.2728 27.3761 15.3904 27.2735 15.5054C27.1722 15.6142 27.0559 15.712 26.9248 15.7987ZM23.9111 14.5414L23.4873 13.8796L25.5249 12.5323L25.9488 13.1941L23.9111 14.5414Z" fill="#124B90"/>
<path d="M28.5592 14.7376L26.9135 11.6222L27.8104 11.1329L29.4561 14.2483L28.5592 14.7376ZM27.1325 10.9433C26.9677 11.0332 26.808 11.0581 26.6536 11.018C26.4991 10.978 26.3841 10.8865 26.3087 10.7437C26.2332 10.6009 26.2218 10.453 26.2743 10.3C26.3268 10.147 26.4354 10.0256 26.6002 9.9357C26.765 9.84579 26.9236 9.81894 27.0761 9.85514C27.2265 9.88748 27.3394 9.97506 27.4148 10.1179C27.4944 10.2685 27.5089 10.4221 27.4585 10.579C27.4098 10.7298 27.3011 10.8513 27.1325 10.9433Z" fill="#124B90"/>
<path d="M31.6586 13.1699L28.962 10.4841L29.9334 10.074L32.2148 12.4019L31.7322 12.6057L31.7615 9.30217L32.6664 8.92007L32.6299 12.7598L31.6586 13.1699Z" fill="#124B90"/>
<path d="M36.5645 11.48C36.1772 11.5864 35.816 11.6042 35.4809 11.5333C35.15 11.4613 34.8698 11.3164 34.6403 11.0988C34.4096 10.8769 34.2494 10.5972 34.1597 10.2597C34.0688 9.91791 34.0665 9.59481 34.1527 9.2904C34.242 8.9806 34.4038 8.71426 34.6382 8.49137C34.8714 8.26425 35.1607 8.10326 35.5059 8.00837C35.8385 7.91696 36.1564 7.90653 36.4598 7.97709C36.7663 8.04227 37.0327 8.18637 37.2591 8.40937C37.4845 8.62816 37.6459 8.9211 37.7435 9.28819C37.7536 9.32616 37.7633 9.37104 37.7726 9.42283C37.7807 9.4704 37.7883 9.51586 37.7953 9.55921L35.0357 10.3177L34.8826 9.74177L37.1243 9.1256L36.7909 9.40062C36.7437 9.22341 36.667 9.07924 36.5607 8.96811C36.4543 8.85698 36.3285 8.78291 36.1831 8.74589C36.0366 8.70466 35.8792 8.70718 35.7108 8.75347C35.5424 8.79975 35.403 8.87881 35.2927 8.99063C35.1855 9.09707 35.114 9.22764 35.0784 9.38233C35.0416 9.5328 35.0473 9.69876 35.0955 9.88019L35.1359 10.0321C35.1853 10.2177 35.269 10.3713 35.3872 10.4928C35.5084 10.6089 35.6528 10.6846 35.8203 10.7201C35.9909 10.7502 36.1773 10.7374 36.3794 10.6819C36.5604 10.6321 36.711 10.5613 36.8311 10.4694C36.9554 10.3764 37.0599 10.2594 37.1444 10.1185L37.8199 10.544C37.7113 10.764 37.552 10.955 37.342 11.1168C37.131 11.2745 36.8718 11.3955 36.5645 11.48Z" fill="#124B90"/>
<path d="M40.5925 10.6313C40.2943 10.674 40.0021 10.6805 39.7159 10.6509C39.4335 10.6163 39.2048 10.5564 39.03 10.4712L39.2667 9.69637C39.4404 9.77296 39.6397 9.82824 39.8648 9.86219C40.0936 9.8912 40.3139 9.89056 40.5256 9.86026C40.759 9.82686 40.9194 9.77525 41.0067 9.70542C41.0983 9.63498 41.1373 9.55002 41.1235 9.45054C41.1122 9.36837 41.0649 9.31339 40.9817 9.28559C40.9023 9.25286 40.7984 9.23464 40.6701 9.23095C40.5417 9.22726 40.4005 9.22542 40.2462 9.22544C40.0963 9.22484 39.9433 9.21807 39.7872 9.20511C39.6306 9.18783 39.4845 9.15139 39.349 9.0958C39.2135 9.04021 39.0982 8.95527 39.0031 8.84098C38.9123 8.72607 38.8531 8.56914 38.8257 8.3702C38.7952 8.14963 38.831 7.94604 38.933 7.75943C39.0394 7.57221 39.207 7.41371 39.4359 7.28393C39.6642 7.14983 39.9469 7.05866 40.284 7.01043C40.5217 6.97642 40.7673 6.96774 41.0208 6.98439C41.2743 7.00104 41.4901 7.04735 41.6681 7.12332L41.4304 7.89166C41.2481 7.8163 41.0682 7.77369 40.8905 7.76383C40.7166 7.74902 40.5496 7.75306 40.3897 7.77594C40.165 7.80809 40.0049 7.86187 39.9096 7.93726C39.8142 8.01265 39.7731 8.09791 39.7862 8.19306C39.7982 8.27956 39.8439 8.33918 39.9233 8.37192C40.0071 8.40403 40.1135 8.4241 40.2424 8.43212C40.3713 8.44013 40.5107 8.44444 40.6607 8.44504C40.8143 8.4407 40.9695 8.44717 41.1261 8.46445C41.2828 8.48173 41.4267 8.51847 41.5579 8.57468C41.6927 8.62595 41.8078 8.70872 41.9029 8.82302C41.9974 8.93298 42.0584 9.08744 42.0859 9.28639C42.1158 9.50263 42.0775 9.70437 41.9712 9.89159C41.8642 10.0745 41.6941 10.2311 41.4609 10.3615C41.232 10.4913 40.9426 10.5812 40.5925 10.6313Z" fill="#124B90"/>
<path d="M48.0102 10.3704C47.6486 10.3466 47.3189 10.268 47.0212 10.1347C46.7282 9.99731 46.4753 9.81441 46.2624 9.58602C46.054 9.35792 45.8958 9.09593 45.7879 8.80006C45.6844 8.50448 45.6437 8.18458 45.6658 7.84038C45.6879 7.49617 45.7692 7.1843 45.9096 6.90476C46.0544 6.6255 46.247 6.38658 46.4872 6.18798C46.7275 5.98938 47.0037 5.84347 47.316 5.75024C47.6285 5.65265 47.9677 5.61589 48.3337 5.63995C48.7388 5.66659 49.0983 5.75805 49.412 5.91431C49.7301 6.07086 49.9919 6.28498 50.1976 6.55665L49.4777 7.13937C49.3233 6.95421 49.1508 6.81379 48.9601 6.71811C48.7696 6.61808 48.5589 6.56047 48.328 6.54529C48.1058 6.53068 47.901 6.55222 47.7136 6.6099C47.5261 6.66758 47.3607 6.75733 47.2172 6.87916C47.0781 7.00128 46.9658 7.14922 46.8803 7.32299C46.7991 7.49705 46.7515 7.693 46.7375 7.91085C46.7238 8.12434 46.7461 8.3227 46.8043 8.50592C46.8669 8.68943 46.9592 8.85301 47.0812 8.99667C47.2079 9.13627 47.3583 9.24679 47.5324 9.32825C47.7109 9.40999 47.9091 9.45802 48.1269 9.47235C48.336 9.4861 48.5407 9.46674 48.7409 9.41428C48.9458 9.35774 49.1471 9.25503 49.3448 9.10614L49.8969 9.91032C49.6365 10.0813 49.3376 10.2061 49.0001 10.2845C48.6669 10.3632 48.3369 10.3919 48.0102 10.3704ZM48.9385 9.70948L49.0489 7.99064L50.0161 8.05424L49.8969 9.91032L48.9385 9.70948Z" fill="#124B90"/>
<path d="M56.5744 8.22293C56.8448 8.29323 57.0697 8.41033 57.249 8.57422C57.4335 8.73497 57.5567 8.94291 57.6184 9.19802C57.6853 9.45001 57.675 9.74956 57.5874 10.0967L57.0938 12.0524L56.105 11.7954L56.5602 9.99205C56.6296 9.71689 56.6239 9.49886 56.5429 9.33797C56.4619 9.17709 56.3179 9.06973 56.1109 9.01591C55.9672 8.97856 55.8298 8.97892 55.6986 9.017C55.5685 9.05084 55.4552 9.12513 55.3587 9.23989C55.2622 9.35464 55.1883 9.51362 55.137 9.71681L54.7043 11.4313L53.7155 11.1742L54.1706 9.37088C54.2401 9.09572 54.2343 8.87769 54.1533 8.7168C54.0766 8.55701 53.9347 8.45021 53.7277 8.39638C53.584 8.35904 53.4466 8.3594 53.3154 8.39747C53.1853 8.43131 53.0719 8.50561 52.9754 8.62037C52.8789 8.73512 52.805 8.89409 52.7538 9.09729L52.3211 10.8118L51.3323 10.5547L52.1945 7.13849L53.1389 7.38399L52.9033 8.31742L52.7947 7.99824C52.9718 7.79617 53.1831 7.66388 53.4285 7.60137C53.6792 7.53572 53.944 7.53915 54.2229 7.61165C54.5356 7.69293 54.7878 7.84421 54.9796 8.06549C55.1767 8.28364 55.2722 8.56557 55.266 8.91131L54.9414 8.72544C55.1228 8.4884 55.3579 8.32397 55.6468 8.23215C55.9398 8.14142 56.249 8.13835 56.5744 8.22293Z" fill="#124B90"/>
<path d="M60.3151 13.5723C60.0339 13.4418 59.8192 13.27 59.6709 13.0569C59.5227 12.8437 59.4498 12.5909 59.4521 12.2984C59.4563 12.002 59.5425 11.6666 59.7109 11.2923C59.8811 10.9141 60.0763 10.6293 60.2965 10.4379C60.5207 10.2483 60.7606 10.1406 61.0163 10.1149C61.2721 10.0891 61.5346 10.1387 61.8039 10.2637C62.1049 10.4033 62.3438 10.596 62.5205 10.8416C62.7012 11.089 62.8053 11.3683 62.8328 11.6795C62.8643 11.9925 62.8039 12.3182 62.6516 12.6566C62.5011 12.9911 62.2991 13.2487 62.0454 13.4294C61.7957 13.6119 61.5187 13.7168 61.2144 13.7441C60.9159 13.7692 60.6161 13.7119 60.3151 13.5723ZM58.4474 12.6481L60.4415 8.21669L61.3682 8.64664L60.5271 10.5159L60.0404 11.438L59.6282 12.4018L59.3326 13.0587L58.4474 12.6481ZM60.4987 12.7334C60.6531 12.8051 60.8059 12.8326 60.957 12.8161C61.112 12.8014 61.2547 12.7449 61.3851 12.6466C61.5213 12.5461 61.6306 12.4043 61.713 12.2212C61.7972 12.034 61.8312 11.8573 61.8151 11.691C61.8029 11.5266 61.7516 11.38 61.6611 11.2514C61.5745 11.1246 61.454 11.0254 61.2995 10.9537C61.1451 10.8821 60.9903 10.8536 60.8353 10.8683C60.6803 10.883 60.5376 10.9395 60.4071 11.0378C60.2767 11.1361 60.1694 11.2789 60.0852 11.466C60.0028 11.6491 59.9668 11.8249 59.9772 11.9934C59.9893 12.1578 60.0407 12.3044 60.1312 12.433C60.2217 12.5616 60.3442 12.6618 60.4987 12.7334Z" fill="#124B90"/>
<path d="M68.1704 12.8046L69.0515 13.3956L66.5523 17.2388L65.6712 16.6478L68.1704 12.8046ZM63.9417 15.4877L63.0606 14.8967L65.5598 11.0535L66.4409 11.6445L63.9417 15.4877ZM66.7612 15.1159L64.9011 13.8682L65.3902 13.116L67.2503 14.3637L66.7612 15.1159Z" fill="#124B90"/>
<path d="M29.5108 42.2106H60.586L65.2092 37.2275H34.1341L29.5108 42.2106Z" fill="#124B90"/>
<path d="M22.7261 49.5231H53.8013L58.4246 44.54H27.3494L22.7261 49.5231Z" fill="#124B90"/>
<path d="M16.0555 56.7133H47.1306L51.7539 51.7363H20.6731L16.0555 56.7133Z" fill="#124B90"/>
</svg>
