<svg width="40" height="30" viewBox="0 0 40 30" fill="none" xmlns="http://www.w3.org/2000/svg">
<path d="M35.5556 0.555664H4.44444C3.2657 0.555664 2.13524 1.02392 1.30175 1.85741C0.468253 2.69091 0 3.82137 0 5.00011L0 15.0001H40V5.00011C40 3.82137 39.5317 2.69091 38.6983 1.85741C37.8648 1.02392 36.7343 0.555664 35.5556 0.555664Z" fill="#005BBB"/>
<path d="M40 25.0001C40 26.1789 39.5317 27.3093 38.6983 28.1428C37.8648 28.9763 36.7343 29.4446 35.5556 29.4446H4.44444C3.2657 29.4446 2.13524 28.9763 1.30175 28.1428C0.468253 27.3093 0 26.1789 0 25.0001V15.0001H40V25.0001Z" fill="#FFD500"/>
</svg>
